<svg width="1170" height="336" viewBox="0 0 1170 336" fill="none" xmlns="http://www.w3.org/2000/svg">
<rect x="474" y="276" width="36" height="205" transform="rotate(180 474 276)" fill="#A8132B"/>
<rect x="697" y="276" width="36" height="205" transform="rotate(180 697 276)" fill="#A8132B"/>
<rect x="788" y="276" width="36" height="205" transform="rotate(180 788 276)" fill="#A8132B"/>
<rect x="839" y="276" width="36" height="205" transform="rotate(180 839 276)" fill="#A8132B"/>
<rect x="945" y="276" width="36" height="205" transform="rotate(180 945 276)" fill="#A8132B"/>
<rect x="1046" y="276" width="36" height="205" transform="rotate(180 1046 276)" fill="#A8132B"/>
<rect x="481" y="155" width="41" height="25" fill="#A8132B"/>
<rect x="704" y="155" width="41" height="25" fill="#A8132B"/>
<rect x="839" y="155" width="41" height="25" fill="#A8132B"/>
<rect x="568" y="212" width="47" height="25" fill="#A8132B"/>
<rect x="481" y="71" width="49" height="25" fill="#A8132B"/>
<path d="M537 276L570.292 71H594L566.761 276H537Z" fill="#A8132B"/>
<path d="M646 276L612.708 155H589L616.239 276H646Z" fill="#A8132B"/>
<rect width="47" height="25" transform="matrix(-1 0 0 1 1139 212)" fill="#A8132B"/>
<path d="M1170 276L1136.71 71H1113L1140.24 276H1170Z" fill="#A8132B"/>
<path d="M1061 276L1094.29 155H1118L1090.76 276H1061Z" fill="#A8132B"/>
<path d="M992 276L958.708 71H935L962.239 276H992Z" fill="#A8132B"/>
<path d="M963 276L996.292 71H1020L992.761 276H963Z" fill="#A8132B"/>
<rect x="846" y="71" width="48" height="29" fill="#A8132B"/>
<rect x="846" y="247" width="48" height="29" fill="#A8132B"/>
<path d="M198.162 212.129L173.412 166.744L171.733 163.964L183.721 168.108L203.144 210.639C216.975 208.661 222.664 202.645 223.78 199.885L229.928 158.228L237.168 157.65L230.019 209.588L212.8 217.519L198.162 212.129Z" fill="#A8132B"/>
<path d="M69.2997 176.872L67.794 107.774L75.0399 111.836L75.6624 174.431L69.2997 176.872Z" fill="#A8132B"/>
<ellipse cx="106.915" cy="234.059" rx="67.0177" ry="73.1301" transform="rotate(19.5597 106.915 234.059)" fill="black"/>
<path d="M314.417 25.4375L300.717 36.3668L311.475 38.7873L318.615 32.3887L344.088 18.3343C346.683 14.3384 343.355 12.1995 341.367 11.6296L314.417 25.4375Z" fill="#A8132B"/>
<path d="M100.272 245.441L109.39 131.414L115.413 133.848L107.281 241.967L100.272 245.441Z" fill="#A8132B"/>
<path d="M70.5066 64.9345L247.022 30.8144C337.549 36.7067 364.256 51.9411 371.055 59.5348L150.586 105.176C7.6524 107.254 37.6441 79.2142 70.5066 64.9345Z" fill="#A8132B"/>
<path d="M54.1754 279.356C-3.08391 281.301 20.5447 252.045 39.5164 237.173L40.4406 248.757C18.531 270.032 39.852 270.298 53.2511 267.772L142.109 221.702L181.273 173.768L348.036 108.731L368.425 99.4537L446.005 44.4471L483.251 27.2675C489.332 26.7823 489.993 31.1013 489.563 33.3214L446.727 53.4971L369.349 111.038L343.53 120.748L210.595 171.428C187.716 173.253 175.979 192.648 172.97 202.117L150.651 228.306L54.1754 279.356Z" fill="#A8132B"/>
<path d="M218.111 165.364L204.948 169.328L204.457 163.174C216.702 159.574 223.971 162.71 226.075 164.728L276.462 243.77C295.551 249.241 303.019 238.736 304.367 232.8C305.498 202.837 308.589 140.512 311.904 130.922C315.219 121.331 324.041 115.624 328.038 113.969L334.741 120.356L318.782 130.373L312.141 243.473L289.159 252.229L270.149 246.823L218.111 165.364Z" fill="#A8132B"/>
<path d="M177.958 168.932C131.057 161.89 45.2521 94.6366 43.3997 89.6842C77.511 104.449 142.009 103.432 169.994 101.078L370.693 59.5636C359.753 83.1691 346.202 105.72 340.795 114.045L200.575 169.313L177.958 168.932Z" fill="#A8132B"/>
<path d="M336 48.5C245.5 61 63.9 86.3 61.5 87.5L161.5 151L336 113.5L365.5 60L336 48.5Z" fill="#A8132B"/>
</svg>
