<svg width="250" height="322" viewBox="0 0 250 322" fill="none" xmlns="http://www.w3.org/2000/svg">
<rect x="71.5" y="7.5" width="104" height="153" rx="52" stroke="white" stroke-width="15"/>
<rect x="68.6066" y="182.122" width="21.9415" height="50.825" rx="7.5" transform="rotate(-45 68.6066 182.122)" stroke="white" stroke-width="15"/>
<rect x="-10.6066" width="21.9415" height="50.825" rx="7.5" transform="matrix(-0.707107 -0.707107 -0.707107 0.707107 171.56 174.622)" stroke="white" stroke-width="15"/>
<path d="M58.7424 186.898L78.58 168.893C81.34 166.388 84.9339 165 88.6612 165H156.93C161.37 165 165.581 166.966 168.431 170.37L181.03 185.416C182.765 187.489 185.028 189.054 187.58 189.946L232.444 205.632C239.609 208.137 243.773 215.599 242.143 223.013L224.725 302.221C223.213 309.1 217.118 314 210.075 314H34.5973C27.1163 314 20.7788 308.488 19.7421 301.079L8.58676 221.361C7.6498 214.665 11.3079 208.17 17.5195 205.501L54.5837 189.572C56.1083 188.917 57.5136 188.013 58.7424 186.898Z" stroke="white" stroke-width="15"/>
<line x1="165" y1="251.5" x2="214" y2="251.5" stroke="white" stroke-width="15"/>
<line x1="124.5" y1="206" x2="124.5" y2="314" stroke="white" stroke-width="15"/>
<path d="M76.0185 38C75.3305 48.2927 93.5635 68.2606 172 65.7903" stroke="white" stroke-width="15"/>
</svg>
