<svg width="400" height="217" viewBox="0 0 400 217" fill="none" xmlns="http://www.w3.org/2000/svg">
<rect x="7.5" y="7.5" width="385" height="202" rx="12.5" stroke="white" stroke-width="15"/>
<circle cx="200" cy="109" r="69.5" stroke="white" stroke-width="15"/>
<path d="M177.53 111.208C170.224 109.108 164.901 106.535 161.559 103.489C158.246 100.413 156.59 96.627 156.59 92.1314C156.59 87.0444 158.616 82.8446 162.668 79.5321C166.749 76.19 172.043 74.519 178.55 74.519C182.986 74.519 186.935 75.3767 190.395 77.0921C193.885 78.8075 196.576 81.1735 198.469 84.1903C200.392 87.207 201.353 90.5047 201.353 94.0834H192.791C192.791 90.1794 191.549 87.1183 189.064 84.9001C186.58 82.6523 183.075 81.5285 178.55 81.5285C174.35 81.5285 171.067 82.4601 168.701 84.3234C166.365 86.1571 165.196 88.7154 165.196 91.9983C165.196 94.6306 166.306 96.8636 168.524 98.6973C170.771 100.501 174.572 102.158 179.925 103.666C185.308 105.174 189.508 106.845 192.525 108.679C195.571 110.483 197.819 112.598 199.268 115.023C200.747 117.448 201.486 120.302 201.486 123.585C201.486 128.82 199.445 133.02 195.364 136.185C191.282 139.32 185.826 140.887 178.994 140.887C174.557 140.887 170.417 140.044 166.572 138.359C162.727 136.643 159.754 134.307 157.655 131.349C155.584 128.391 154.549 125.035 154.549 121.278H163.111C163.111 125.182 164.546 128.273 167.415 130.551C170.313 132.798 174.173 133.922 178.994 133.922C183.489 133.922 186.935 133.005 189.33 131.172C191.726 129.338 192.924 126.839 192.924 123.674C192.924 120.509 191.815 118.069 189.597 116.354C187.378 114.609 183.356 112.894 177.53 111.208ZM212.799 145.545H205.745L232.718 75.4062H239.728L212.799 145.545Z" fill="white"/>
</svg>
