<svg width="198" height="204" viewBox="0 0 198 204" fill="none" xmlns="http://www.w3.org/2000/svg">
<path d="M131.776 88H66.3694C60.091 88 54.4768 91.9102 52.2999 97.7992L23.4672 175.799C19.8464 185.595 27.0936 196 37.5368 196H164.453C175.169 196 182.428 185.088 178.288 175.204L145.611 97.204C143.275 91.6286 137.821 88 131.776 88Z" stroke="white" stroke-width="15"/>
<path d="M125.5 140.5C125.5 155.515 113.533 167.5 99 167.5C84.4673 167.5 72.5 155.515 72.5 140.5C72.5 125.485 84.4673 113.5 99 113.5C113.533 113.5 125.5 125.485 125.5 140.5Z" stroke="white" stroke-width="15"/>
<path d="M78 82V82C78 73.7157 84.7157 67 93 67H105C113.284 67 120 73.7157 120 82V82" stroke="white" stroke-width="15"/>
<path d="M42.0118 9.03028C3.29984 25.0339 4.65481 54.0242 12.3044 71.752C14.3306 76.4476 19.2231 79 24.3372 79H36.8128C43.3071 79 49.0639 74.8207 51.0752 68.6457L56.0925 53.2423C58.1039 47.0672 63.8606 42.8879 70.355 42.8879H127.342C134.064 42.8879 139.965 47.3595 141.783 53.8306L144.92 64.997C146.738 71.4681 152.639 75.9397 159.361 75.9397H175.14C181.503 75.9397 187.347 71.9344 188.65 65.7064C195.987 30.6378 171.749 13.4886 156.058 8.54397C154.82 8.15378 153.528 8 152.23 8H47.3684C45.543 8 43.6987 8.33291 42.0118 9.03028Z" stroke="white" stroke-width="15"/>
</svg>
