<svg id="Capa_1" data-name="Capa 1" xmlns="http://www.w3.org/2000/svg" xmlns:xlink="http://www.w3.org/1999/xlink" viewBox="0 0 1920 1080"><defs><style>.cls-1{fill:none;}.cls-2{fill:#fff;}.cls-3{clip-path:url(#clip-path);}.cls-4{fill:#a4a5a8;opacity:0.1;}.cls-5{fill:#a8182d;}.cls-6{fill:#e73757;}.cls-7{fill:#a9182c;}.cls-8{fill:#333;}</style><clipPath id="clip-path"><rect id="Background" class="cls-1" x="-201.37" width="2180.87" height="3380"/></clipPath></defs><rect class="cls-2" x="-201.37" width="2180.87" height="3380"/><g class="cls-3"><polygon class="cls-4" points="-2035.42 3546.93 -2400.17 3343.23 -61.55 -1685.76 303.19 -1482.07 -2035.42 3546.93"/><polygon class="cls-4" points="-1051.01 4080.72 -2098.32 3495.86 240.29 -1533.14 1287.61 -948.28 -1051.01 4080.72"/><polygon class="cls-4" points="-845.5 4080.72 -1381.22 3781.55 957.39 -1247.45 1493.12 -948.28 -845.5 4080.72"/><polygon class="cls-4" points="-645.7 4080.72 -1181.42 3781.55 1157.19 -1247.45 1692.92 -948.28 -645.7 4080.72"/><polygon class="cls-4" points="-116.33 4602.68 -384.2 4453.09 1954.42 -575.9 2222.28 -426.32 -116.33 4602.68"/><polygon class="cls-4" points="356.7 4866.84 -59.34 4634.51 2279.27 -394.49 2695.31 -162.16 356.7 4866.84"/><polygon class="cls-4" points="-424.09 4430.82 -691.96 4281.23 1646.66 -747.77 1914.52 -598.18 -424.09 4430.82"/><polygon class="cls-4" points="898.13 5169.2 248.42 4806.37 2587.03 -222.63 3236.74 140.2 898.13 5169.2"/></g><rect class="cls-5" x="32.94" y="811.59" width="22.56" height="129.87"/><rect class="cls-5" x="172.71" y="811.59" width="22.56" height="129.87"/><rect class="cls-5" x="229.75" y="811.59" width="22.56" height="129.87"/><rect class="cls-5" x="261.71" y="811.59" width="22.56" height="129.87"/><rect class="cls-5" x="328.15" y="811.59" width="22.56" height="129.87"/><rect class="cls-5" x="391.46" y="811.59" width="22.56" height="129.87"/><rect class="cls-5" x="59.89" y="864.81" width="25.7" height="15.84"/><rect class="cls-5" x="199.66" y="864.81" width="25.7" height="15.84"/><rect class="cls-5" x="284.28" y="864.81" width="25.7" height="15.84"/><rect class="cls-5" x="114.42" y="900.92" width="29.46" height="15.84"/><rect class="cls-5" x="59.89" y="811.59" width="30.71" height="15.84"/><polygon class="cls-5" points="94.99 941.47 115.86 811.59 130.72 811.59 113.64 941.47 94.99 941.47"/><polygon class="cls-5" points="163.31 941.47 142.44 864.81 127.58 864.81 144.66 941.47 163.31 941.47"/><rect class="cls-5" x="442.85" y="900.92" width="29.46" height="15.84"/><polygon class="cls-5" points="491.74 941.47 470.88 811.59 456.01 811.59 473.09 941.47 491.74 941.47"/><polygon class="cls-5" points="423.42 941.47 444.29 864.81 459.15 864.81 442.08 941.47 423.42 941.47"/><polygon class="cls-5" points="380.18 941.47 359.31 811.59 344.45 811.59 361.52 941.47 380.18 941.47"/><polygon class="cls-5" points="362 941.47 382.87 811.59 397.73 811.59 380.65 941.47 362 941.47"/><rect class="cls-5" x="288.66" y="811.59" width="30.09" height="18.37"/><rect class="cls-5" x="288.66" y="923.09" width="30.09" height="18.37"/><path class="cls-5" d="M242.38,733.75,226.87,705l-1.05-1.77,7.51,2.63,12.18,26.94c8.67-1.25,12.23-5.06,12.93-6.81l3.85-26.39,4.54-.36-4.48,32.9-10.79,5Z"/><polygon class="cls-5" points="161.62 711.41 160.67 667.64 165.21 670.21 165.6 709.87 161.62 711.41"/><ellipse cx="185.19" cy="747.64" rx="46.28" ry="42.05" transform="translate(-583.51 699) rotate(-72.47)"/><path class="cls-5" d="M315.25,615.47l-8.59,6.93,6.75,1.53,4.47-4,16-8.91c1.62-2.53-.46-3.88-1.71-4.24Z"/><polygon class="cls-5" points="181.03 754.85 186.74 682.61 190.52 684.16 185.42 752.65 181.03 754.85"/><path class="cls-5" d="M162.37,640.5,273,618.88c56.74,3.73,73.48,13.39,77.74,18.2L212.56,666C123,667.31,141.77,649.54,162.37,640.5Z"/><path class="cls-5" d="M152.14,776.34c-35.89,1.23-21.08-17.3-9.19-26.72l.58,7.33c-13.74,13.48-.37,13.65,8,12l55.69-29.19,24.55-30.36,104.52-41.21,12.78-5.87,48.63-34.85,23.34-10.89c3.81-.3,4.23,2.43,4,3.84l-26.85,12.78-48.5,36.45-16.18,6.16L250.18,708c-14.34,1.16-21.7,13.45-23.59,19.45l-14,16.59Z"/><path class="cls-5" d="M254.89,704.12l-8.25,2.51-.31-3.9c7.67-2.28,12.23-.29,13.55,1l31.58,50.07c12,3.47,16.65-3.18,17.49-6.95.71-19,2.65-58.46,4.73-64.54s7.6-9.69,10.11-10.74l4.2,4.05L318,682l-4.17,71.66-14.4,5.54-11.92-3.42Z"/><path class="cls-5" d="M229.72,706.38c-29.4-4.46-83.18-47.07-84.34-50.2,21.38,9.35,61.81,8.71,79.35,7.21l125.79-26.3a313.08,313.08,0,0,1-18.74,34.52l-87.88,35Z"/><polygon class="cls-6" points="1976.95 1791.68 -165 0 1976.95 0 1976.95 1791.68"/><rect class="cls-7" x="154.5" y="150.36" width="1060.62" height="120.68"/><rect class="cls-7" x="1322.82" y="271.04" width="538.65" height="120.68"/><rect class="cls-7" x="1446.21" y="515.29" width="453.17" height="120.68"/><path class="cls-2" d="M228.11,220.8q0,12.49-3,17-5.43,8.34-27.1,8.33c-6.54,0-11.56-.5-15.09-1.52q-8.43-2.44-11-9.36-1.26-3.37-1.26-12.05,0-2,.15-6c.1-2.64.14-4.62.14-5.92q0-5.7-.53-17.06t-.53-17c0-.78.34-1.18,1-1.18q3,0,8.94.25t8.95.24c.81,0,1.21.36,1.21,1.08q0,6.48-.41,19.39t-.41,19.38q0,7.69,1.6,10.39,2.13,3.68,8.92,3.68,9.94,0,9.94-9.75,0-7.11-.34-21.33t-.34-21.32c0-1,.41-1.52,1.21-1.52q2.87,0,8.64-.24t8.63-.25c.93,0,1.41.4,1.41,1.18q0,5.64-.47,17T228,211.34c0,1,0,2.62.05,4.72S228.11,219.75,228.11,220.8Z"/><path class="cls-2" d="M285.53,243.44a1.4,1.4,0,0,1-1.36,1.52q-1.37.19-7.08.19a54.41,54.41,0,0,1-7.57-.29,1.78,1.78,0,0,1-1.45-2q0-2.29.15-7t.14-7c0-1.21,0-3-.09-5.41s-.1-4.21-.1-5.42q0-6.72-5.78-6.71A8.38,8.38,0,0,0,258,213c-1.81,1.25-2.71,2.47-2.71,3.68v26.46a1.61,1.61,0,0,1-1.51,1.82q-1.69.19-6.93.19a55.41,55.41,0,0,1-7.37-.29,1.53,1.53,0,0,1-1.5-1.61c0-2.56,0-6.39,0-11.53s.05-9,.05-11.56q0-12.21-1.89-19.17a3.8,3.8,0,0,1-.1-.73,1.09,1.09,0,0,1,.73-1.08c2-.23,4.75-.59,8.15-1.08q7.71-1.51,8.68-1.52c.36,0,.63,1.11.82,3.31s.47,3.31.83,3.31c-.36,0,1.38-1.13,5.21-3.41s7.18-3.41,10.06-3.41a17.25,17.25,0,0,1,10.28,3,11,11,0,0,1,4.61,9.41v15.63c0,2.13,0,5.3.05,9.54S285.53,241.32,285.53,243.44Z"/><path class="cls-2" d="M342.36,220.35q0,3.78.44,11.23t.43,11.17c0,1.31-.56,2-1.69,2.11-4,.29-8.61.44-13.77.44-.62,0-1-.94-1.24-2.82s-.46-2.83-.75-2.86a4.53,4.53,0,0,0-1,.83c-3.63,3.69-7.5,5.54-11.64,5.54a19.42,19.42,0,0,1-15.66-7.55,25.56,25.56,0,0,1-5.87-16.86q0-11.33,6.06-18.23,6.3-7.15,17.26-7.16,7.62,0,12,5.39c.13.17.24.25.34.25.29,0,.62-.8,1-2.38s.82-2.38,1.33-2.38a42.87,42.87,0,0,1,6.84,1,66.84,66.84,0,0,1,6.89,1.67c.48.19.72.46.72.78a7.67,7.67,0,0,1-.14,1A109.46,109.46,0,0,0,342.36,220.35Zm-15.62.3a9.57,9.57,0,0,0-2.59-6.89,9.77,9.77,0,0,0-13.5,0,9.61,9.61,0,0,0-2.57,6.92,9.51,9.51,0,0,0,2.71,6.81,8.77,8.77,0,0,0,6.6,2.85,8.91,8.91,0,0,0,6.73-2.73A9.56,9.56,0,0,0,326.74,220.65Z"/><path class="cls-2" d="M408.94,212.61s-1-.26-2.94-.78a18.43,18.43,0,0,0-4.67-.79,9.23,9.23,0,0,0-6.89,2.62,9.57,9.57,0,0,0-2.57,7,9.13,9.13,0,0,0,2.81,7.08,10.47,10.47,0,0,0,7.32,2.58,12.73,12.73,0,0,0,4.81-1.11,22.36,22.36,0,0,0,2.52-1.1c.55,0,1.26,2.07,2.13,6.23a49.12,49.12,0,0,1,1.12,7.54c0,1.24-2,2.3-6,3.19a37.09,37.09,0,0,1-7.52,1,23.27,23.27,0,0,1-17.6-7.26,27,27,0,0,1,0-36.15,23.21,23.21,0,0,1,17.58-7.32,25.1,25.1,0,0,1,12.7,3.14q1.26.67,1.26,1.32a47.89,47.89,0,0,1-1.45,5.78q-1.37,5-1.77,6C409.51,212.27,409.23,212.61,408.94,212.61Z"/><path class="cls-2" d="M450.3,214.33c0,1.27-.69,1.91-2.09,1.91-.61,0-1.5,0-2.69-.13s-2-.12-2.64-.12c-2.68,0-4.51.43-5.48,1.27s-1.45,2.57-1.45,5.15q0,2.11.07,6.4t.07,6.4c0,.94.07,2.36.2,4.23s.19,3.28.19,4.2-.53,1.22-1.6,1.32q-2.33.19-7.13.19a72,72,0,0,1-7.37-.29c-1.07-.13-1.6-.67-1.6-1.61,0-2.62,0-6.54.05-11.74s.05-9.13.05-11.75a71.91,71.91,0,0,0-2.09-19,4,4,0,0,1-.1-.74,1,1,0,0,1,.73-1q2.67-.29,7.81-1.08,7.66-1.51,7.9-1.51c.59,0,1,1,1.12,3.08s.45,3.09.87,3.09q-.67,0,4-2.57a18.48,18.48,0,0,1,9-2.58c1.81,0,2.71.39,2.71,1.18a37,37,0,0,1-.29,4q-.28,2.79-.33,4c0,.94,0,2.21,0,3.77C450.27,212.43,450.3,213.7,450.3,214.33Z"/><path class="cls-2" d="M473.91,222.36q0,3.58.15,10.66c.09,4.73.14,8.26.14,10.62,0,.68-.4,1.09-1.21,1.22a95.58,95.58,0,0,1-14.88,0c-.71-.13-1.15-.34-1.32-.64a6,6,0,0,1-.09-1.47q0-3.37.14-10.17t.15-10.22a181,181,0,0,0-1.07-22.15c-.06-.52-.09-.87-.09-1,0-.65.43-1,1.3-1s2.29.1,4.15.3,3.26.29,4.19.29,2.35-.08,4.23-.25,3.28-.24,4.21-.24c.78,0,1.17.32,1.17,1a8.58,8.58,0,0,1-.1.93A202.45,202.45,0,0,0,473.91,222.36ZM475.18,186q0,8.52-9.51,8.53a10.38,10.38,0,0,1-6.74-2.16,8.24,8.24,0,0,1,.1-12.65,10.19,10.19,0,0,1,6.64-2.25,9.9,9.9,0,0,1,6.55,2.3A7.74,7.74,0,0,1,475.18,186Z"/><path class="cls-2" d="M511.64,205.21a2.34,2.34,0,0,1-.73,1.32,10.88,10.88,0,0,0-2.71-.34,8.54,8.54,0,0,0-4.8,1.27,4.67,4.67,0,0,0-2.33,4.17c0,1.14.83,2.6,2.48,4.36a49.27,49.27,0,0,1,4.6,5.34,14.19,14.19,0,0,1,2.47,8,16.31,16.31,0,0,1-1,5.3,10.38,10.38,0,0,1-2.82,4.5,33.3,33.3,0,0,1-8.39,5.3,24.2,24.2,0,0,1-9.55,2.25c-.65,0-2.09-1.77-4.34-5.31s-3.37-5.71-3.37-6.5c0-.29.18-.47.53-.53l6.84-1.28q4.28-1.38,4.27-4.51c0-1.44-.82-3.1-2.48-5q-4.41-4.95-4.6-5.24a12.79,12.79,0,0,1-2.47-7.46q0-7.35,7.36-12.5a24.46,24.46,0,0,1,14.12-4.55c.52,0,1.79,1.75,3.83,5.27S511.64,204.62,511.64,205.21Z"/><path class="cls-2" d="M536.57,222.36q0,3.58.15,10.66c.09,4.73.14,8.26.14,10.62,0,.68-.4,1.09-1.21,1.22a55.31,55.31,0,0,1-7.42.29,55.93,55.93,0,0,1-7.47-.29c-.71-.13-1.14-.34-1.31-.64a5.27,5.27,0,0,1-.1-1.47c0-2.25.06-5.64.15-10.17s.15-7.93.15-10.22a181,181,0,0,0-1.07-22.15,9.52,9.52,0,0,1-.1-1c0-.65.44-1,1.31-1s2.29.1,4.15.3,3.25.29,4.19.29,2.34-.08,4.22-.25,3.28-.24,4.22-.24c.78,0,1.16.32,1.16,1q0,.19-.09.93A202.45,202.45,0,0,0,536.57,222.36ZM537.83,186q0,8.52-9.5,8.53a10.39,10.39,0,0,1-6.75-2.16,8.26,8.26,0,0,1,.1-12.65,10.21,10.21,0,0,1,6.65-2.25,9.86,9.86,0,0,1,6.54,2.3A7.71,7.71,0,0,1,537.83,186Z"/><path class="cls-2" d="M574.29,205.21a2.37,2.37,0,0,1-.72,1.32,11,11,0,0,0-2.72-.34,8.54,8.54,0,0,0-4.8,1.27,4.67,4.67,0,0,0-2.33,4.17c0,1.14.83,2.6,2.48,4.36a49.27,49.27,0,0,1,4.6,5.34,14.2,14.2,0,0,1,2.48,8,16.34,16.34,0,0,1-1,5.3,10.29,10.29,0,0,1-2.82,4.5,33.3,33.3,0,0,1-8.39,5.3,24.2,24.2,0,0,1-9.55,2.25q-1,0-4.34-5.31c-2.24-3.55-3.37-5.71-3.37-6.5,0-.29.18-.47.53-.53l6.84-1.28q4.27-1.38,4.27-4.51c0-1.44-.82-3.1-2.48-5q-4.41-4.95-4.6-5.24a12.79,12.79,0,0,1-2.47-7.46q0-7.35,7.37-12.5a24.4,24.4,0,0,1,14.11-4.55c.52,0,1.79,1.75,3.83,5.27S574.29,204.62,574.29,205.21Z"/><path class="cls-2" d="M650.53,218.25q0,5-3.15,5.63c-.36.07-3.7.43-10,1.08q-5.73.63-17.07,1.52a6.91,6.91,0,0,0,4.12,4.85,14.33,14.33,0,0,0,6.4,1.38,18.15,18.15,0,0,0,8.68-2.36q1.85-1.17,3.68-2.35c.69.33,1.82,2,3.43,5s2.39,4.92,2.39,5.74c0,.22-.24.6-.72,1.12q-5.93,6.42-18.38,6.42-11.54,0-18.62-6.81Q604,232.56,604,221q0-11.27,6.5-18.48,6.69-7.45,17.75-7.45A21,21,0,0,1,644,201.92,23,23,0,0,1,650.53,218.25Zm-17-3a7.65,7.65,0,0,0-2.13-5.35,6.72,6.72,0,0,0-5.09-2.3,6.06,6.06,0,0,0-5,2.6,9,9,0,0,0-1.85,5.64,1.19,1.19,0,0,0,1.36,1.32A84.62,84.62,0,0,0,632,216C633,215.88,633.55,215.62,633.55,215.26Z"/><path class="cls-2" d="M684.23,205.21a2.34,2.34,0,0,1-.73,1.32,11,11,0,0,0-2.71-.34,8.54,8.54,0,0,0-4.8,1.27,4.65,4.65,0,0,0-2.33,4.17c0,1.14.82,2.6,2.47,4.36a51.07,51.07,0,0,1,4.61,5.34,14.19,14.19,0,0,1,2.47,8,16.08,16.08,0,0,1-1,5.3,10.28,10.28,0,0,1-2.81,4.5,33.48,33.48,0,0,1-8.39,5.3,24.2,24.2,0,0,1-9.55,2.25q-1,0-4.35-5.31c-2.24-3.55-3.36-5.71-3.36-6.5,0-.29.17-.47.53-.53q3.39-.65,6.84-1.28,4.26-1.38,4.26-4.51c0-1.44-.82-3.1-2.47-5-2.94-3.3-4.48-5-4.6-5.24a12.73,12.73,0,0,1-2.48-7.46q0-7.35,7.37-12.5a24.43,24.43,0,0,1,14.11-4.55c.52,0,1.8,1.75,3.84,5.27S684.23,204.62,684.23,205.21Z"/><path class="cls-2" d="M765.94,200.31c0,2.41-.12,6-.34,10.88s-.34,8.46-.34,10.88.08,5.88.24,10.58.24,8.23.24,10.55a1.55,1.55,0,0,1-1.21,1.66,38,38,0,0,1-7.81.49,63.25,63.25,0,0,1-7.37-.29,1.38,1.38,0,0,1-1.16-1.18l-.3-2.94c-.16-1.5-.38-2.26-.67-2.26.45,0-1.18,1.12-4.9,3.34s-7.1,3.33-10.13,3.33q-12.86,0-15.23-11.71a87.87,87.87,0,0,1-1.07-15.78q0-11.19,1.8-17.65.52-2,2-2c1.49,0,3.76,0,6.79.05s5.31.05,6.79.05c1,0,1.51.42,1.51,1.27a9,9,0,0,1-.1,1,89.34,89.34,0,0,0-1,13.53,81.86,81.86,0,0,0,.54,11.66q.87,5.4,6.35,5.4a7.83,7.83,0,0,0,4.63-1.92q2.49-1.91,2.59-4,.09-1.81.1-24.6a4.13,4.13,0,0,1,.24-1.91c.2-.33.78-.49,1.75-.49,1.58,0,4,0,7.15,0s5.57,0,7.15,0c1,0,1.54.25,1.7.74A5.59,5.59,0,0,1,765.94,200.31Z"/><path class="cls-2" d="M822.14,243.44a1.4,1.4,0,0,1-1.36,1.52q-1.37.19-7.08.19a54.41,54.41,0,0,1-7.57-.29,1.78,1.78,0,0,1-1.45-2q0-2.29.15-7t.14-7c0-1.21,0-3-.09-5.41s-.1-4.21-.1-5.42q0-6.72-5.77-6.71a8.38,8.38,0,0,0-4.42,1.66c-1.81,1.25-2.71,2.47-2.71,3.68v26.46a1.61,1.61,0,0,1-1.51,1.82q-1.7.19-6.93.19a55.41,55.41,0,0,1-7.37-.29,1.53,1.53,0,0,1-1.5-1.61c0-2.56,0-6.39,0-11.53s0-9,0-11.56q0-12.21-1.89-19.17a3.8,3.8,0,0,1-.1-.73,1.09,1.09,0,0,1,.73-1.08c2-.23,4.75-.59,8.15-1.08q7.71-1.51,8.68-1.52c.36,0,.63,1.11.82,3.31s.47,3.31.83,3.31c-.36,0,1.38-1.13,5.21-3.41s7.18-3.41,10.06-3.41a17.25,17.25,0,0,1,10.28,3,11,11,0,0,1,4.61,9.41v15.63c0,2.13,0,5.3.05,9.54S822.14,241.32,822.14,243.44Z"/><path class="cls-2" d="M932.56,243.05c0,1.14-.49,1.78-1.46,1.91s-3.36.19-7.18.19a52.16,52.16,0,0,1-7.37-.29c-1-.2-1.45-1-1.45-2.4s0-3.75.14-6.74.15-5.24.15-6.74q0-8.58-.19-12.2-.3-5.84-5.48-5.83a7,7,0,0,0-4.54,1.93,6.55,6.55,0,0,0-2.5,4.29q-.2,2.06-.19,12.06,0,2.29.14,7t.15,7c0,1.07-.47,1.61-1.4,1.61h-14.7c-.91,0-1.36-.67-1.36-2,0-1.53,0-3.84.15-6.91s.14-5.39.14-7q0-1.81-.09-5.49c-.07-2.45-.1-4.3-.1-5.54q0-7-5.29-7a8.37,8.37,0,0,0-4.6,1.66q-2.71,1.81-2.72,3.82,0,4.47.05,13.33t0,13.29a2.52,2.52,0,0,1-.29,1.52,2.82,2.82,0,0,1-1.51.39q-2.18.19-6.88.19c-2,0-4.35-.09-6.94-.29a2.54,2.54,0,0,1-1.38-.34,3,3,0,0,1-.21-1.47c0-2.61,0-6.53,0-11.74s0-9.13,0-11.74a160,160,0,0,0-1.16-18.09,5.29,5.29,0,0,1-.1-.88,1.12,1.12,0,0,1,.68-1.13,16.91,16.91,0,0,1,4-.73c2.43-.23,3.87-.38,4.32-.44s1.6-.41,3.83-1a14.47,14.47,0,0,1,3.83-.69c.61,0,.94,1.14,1,3.41s.16,3.41.39,3.41a4.86,4.86,0,0,0,1.12-.69,46.05,46.05,0,0,1,6.88-4.71,18.28,18.28,0,0,1,8.1-1.81,15.66,15.66,0,0,1,8,2,10.39,10.39,0,0,1,5.09,6.32,20.58,20.58,0,0,1,7.08-5.93,18.67,18.67,0,0,1,8.78-2.4q6.4,0,10.43,3a11.31,11.31,0,0,1,4.56,9.65c0,1.74,0,4.34-.15,7.82s-.15,6.09-.15,7.82q0,3.09.15,9.29T932.56,243.05Z"/><path class="cls-2" d="M990.5,220.35q0,3.78.44,11.23t.44,11.17c0,1.31-.57,2-1.7,2.11q-6,.44-13.77.44c-.62,0-1-.94-1.24-2.82s-.46-2.83-.75-2.86a4.53,4.53,0,0,0-1,.83Q967.47,246,961.26,246a19.45,19.45,0,0,1-15.66-7.55,25.56,25.56,0,0,1-5.87-16.86q0-11.33,6.06-18.23,6.3-7.15,17.27-7.16a14.72,14.72,0,0,1,12,5.39c.13.17.24.25.34.25.29,0,.62-.8,1-2.38s.82-2.38,1.34-2.38a43,43,0,0,1,6.83,1,66.84,66.84,0,0,1,6.89,1.67c.49.19.73.46.73.78a8.5,8.5,0,0,1-.15,1A109.46,109.46,0,0,0,990.5,220.35Zm-15.61.3a9.58,9.58,0,0,0-2.6-6.89,9.77,9.77,0,0,0-13.5,0,9.65,9.65,0,0,0-2.57,6.92,9.55,9.55,0,0,0,2.71,6.81,8.77,8.77,0,0,0,6.6,2.85,8.94,8.94,0,0,0,6.74-2.73A9.56,9.56,0,0,0,974.89,220.65Z"/><path class="cls-2" d="M1032.3,214.33c0,1.27-.69,1.91-2.09,1.91-.61,0-1.5,0-2.69-.13s-2-.12-2.64-.12c-2.68,0-4.51.43-5.48,1.27s-1.45,2.57-1.45,5.15q0,2.11.07,6.4t.07,6.4c0,.94.07,2.36.2,4.23s.19,3.28.19,4.2-.53,1.22-1.6,1.32q-2.32.19-7.13.19a72,72,0,0,1-7.37-.29c-1.07-.13-1.6-.67-1.6-1.61,0-2.62,0-6.54.05-11.74s0-9.13,0-11.75a71.91,71.91,0,0,0-2.09-19,4,4,0,0,1-.1-.74,1,1,0,0,1,.74-1q2.66-.29,7.8-1.08,7.66-1.51,7.9-1.51c.59,0,1,1,1.12,3.08s.45,3.09.87,3.09q-.68,0,4-2.57a18.48,18.48,0,0,1,9-2.58c1.81,0,2.71.39,2.71,1.18a37,37,0,0,1-.29,4q-.29,2.79-.33,4c0,.94,0,2.21,0,3.77C1032.27,212.43,1032.3,213.7,1032.3,214.33Z"/><path class="cls-2" d="M1070.42,230.5a41,41,0,0,1-.36,4.46,39.08,39.08,0,0,0-.37,4.39,3.46,3.46,0,0,1-.29,1.78,5.65,5.65,0,0,1-1.6,1.13,28,28,0,0,1-13.87,3.48q-14,0-14-10.83c0-2.15.08-5.4.24-9.73s.24-7.57.24-9.73c0-1.44-.82-2.16-2.47-2.16h-.63a5.22,5.22,0,0,1-.63.06c-1.23,0-1.84-.45-1.84-1.33q0-.78.12-2.4t.12-2.4c0-.69,0-1.73-.12-3.14s-.12-2.45-.12-3.13,1-1,3.1-1.08c1.17,0,1.79-.36,1.89-1a36.26,36.26,0,0,0,.2-5.89q-.19-6.31-.2-6c0-3.78.36-5.68,1.07-5.68a16.72,16.72,0,0,1,3.73.59,31.68,31.68,0,0,0,3.83.73q2.47.34,7.47.94c.81.06,1.21.34,1.21.83,0,1.31-.1,3.28-.31,5.93s-.32,4.64-.32,6q0,2.4,1.41,2.4c1.13,0,2.84-.05,5.14-.15s4-.15,5.19-.15c.71,0,1.06.25,1.06.74,0,.75-.08,1.88-.24,3.38s-.24,2.63-.24,3.38,0,1.93,0,3.44.05,2.64.05,3.43-.47,1-1.41,1c-.65,0-1.73,0-3.25-.08s-2.6-.07-3.25-.07h-3.64q-.72,0-.72,2.16v3.47c0,1.57,0,2.73,0,3.49,0,2.74.3,4.63.92,5.68.87,1.4,2.58,2.11,5.14,2.11a15.79,15.79,0,0,0,3.46-.56,15.42,15.42,0,0,1,3.18-.57Q1070.42,229.42,1070.42,230.5Z"/><path class="cls-2" d="M1093.45,222.36q0,3.58.15,10.66c.09,4.73.14,8.26.14,10.62,0,.68-.4,1.09-1.21,1.22a55.31,55.31,0,0,1-7.42.29,55.93,55.93,0,0,1-7.47-.29c-.71-.13-1.14-.34-1.31-.64a6,6,0,0,1-.09-1.47q0-3.37.14-10.17t.15-10.22a181,181,0,0,0-1.07-22.15,9.52,9.52,0,0,1-.1-1c0-.65.44-1,1.31-1s2.29.1,4.15.3,3.25.29,4.19.29,2.35-.08,4.22-.25,3.28-.24,4.22-.24c.78,0,1.16.32,1.16,1q0,.19-.09.93A202.45,202.45,0,0,0,1093.45,222.36Zm1.26-36.41q0,8.52-9.5,8.53a10.39,10.39,0,0,1-6.75-2.16,8.25,8.25,0,0,1,.11-12.65,10.17,10.17,0,0,1,6.64-2.25,9.86,9.86,0,0,1,6.54,2.3A7.71,7.71,0,0,1,1094.71,186Z"/><path class="cls-2" d="M1120.46,215.36q0,13.38.1,20.53c0,.75,0,2.05.14,3.87s.15,3,.15,3.88c0,.68-.4,1.09-1.21,1.22a52.34,52.34,0,0,1-7.86.39,41.48,41.48,0,0,1-7.41-.39,1.45,1.45,0,0,1-1.22-1.32v-2.11q0-4.37.1-13.06t.09-13q0-20.6.05-18.78a155.3,155.3,0,0,0-1.21-18.67,5.49,5.49,0,0,1-.09-.83c0-.72.41-1.08,1.25-1.08h17.32q1.21,0,1.11,1l0,.89Q1120.47,199.09,1120.46,215.36Z"/><path class="cls-2" d="M1147,215.36q0,13.38.09,20.53c0,.75.05,2.05.15,3.87s.14,3,.14,3.88c0,.68-.4,1.09-1.21,1.22a52.27,52.27,0,0,1-7.85.39,41.54,41.54,0,0,1-7.42-.39,1.44,1.44,0,0,1-1.21-1.32v-2.11q0-4.37.09-13.06t.1-13q0-20.6.05-18.78a155.1,155.1,0,0,0-1.22-18.67,5.49,5.49,0,0,1-.09-.83c0-.72.41-1.08,1.26-1.08h17.31q1.21,0,1.11,1l0,.89Q1147,199.09,1147,215.36Z"/><path class="cls-2" d="M1202.51,220.75q0,11.16-6.76,18.13t-17.77,7q-10.68,0-17.56-6.86t-6.89-17.65q0-11.36,6.6-18.45T1178,195.8q10.95,0,17.74,6.93T1202.51,220.75Zm-15.9,0a10.59,10.59,0,0,0-2.38-6.84,7.53,7.53,0,0,0-6.16-3,7.78,7.78,0,0,0-6.3,3,11.06,11.06,0,0,0,0,13.58,8,8,0,0,0,12.56,0A10.56,10.56,0,0,0,1186.61,220.75Z"/><path class="cls-2" d="M1282.52,227v7q0,4,.24,12t.25,12a1.46,1.46,0,0,1-1.51,1.61c-1.39.14-3.7.2-6.93.2-.87,0-2.19.07-3.93.2s-3.06.19-3.93.19c-.65,0-1-.49-1-1.47q0-2.9,0-8.7t0-8.7c0-.45-.15-.69-.44-.69q.78,0-3.93,2.68a18.33,18.33,0,0,1-9.06,2.67,19.24,19.24,0,0,1-15.71-7.6,26.26,26.26,0,0,1-5.72-17q0-10.63,5.52-17.74,6-7.65,16.2-7.65,7.8,0,11.83,4.51a4.59,4.59,0,0,0,1,.89,3.15,3.15,0,0,0,.48-2v-2.1c.1-1.24.65-1.87,1.65-1.87,2.65,0,5.64.17,9,.49q7,.65,7,1.72l-.1,1.13Q1282.51,211.92,1282.52,227Zm-17-6.42a10.75,10.75,0,0,0-2.18-7,7.84,7.84,0,0,0-6.5-2.94,7.45,7.45,0,0,0-6.21,3,10.91,10.91,0,0,0-2.13,6.81,10.05,10.05,0,0,0,2.38,6.86,8.19,8.19,0,0,0,6.49,2.89,7.3,7.3,0,0,0,6.16-2.84A10.87,10.87,0,0,0,1265.55,220.55Z"/><path class="cls-2" d="M1341.88,200.31c0,2.41-.12,6-.34,10.88s-.34,8.46-.34,10.88.08,5.88.24,10.58.24,8.23.24,10.55a1.55,1.55,0,0,1-1.21,1.66,38,38,0,0,1-7.81.49,63.25,63.25,0,0,1-7.37-.29,1.38,1.38,0,0,1-1.16-1.18l-.3-2.94c-.16-1.5-.38-2.26-.67-2.26.45,0-1.18,1.12-4.9,3.34s-7.1,3.33-10.13,3.33q-12.86,0-15.23-11.71a87.87,87.87,0,0,1-1.07-15.78q0-11.19,1.8-17.65.52-2,2-2c1.49,0,3.76,0,6.79.05s5.31.05,6.79.05c1,0,1.51.42,1.51,1.27a9,9,0,0,1-.1,1,89.34,89.34,0,0,0-1,13.53,81.86,81.86,0,0,0,.54,11.66c.58,3.6,2.69,5.4,6.35,5.4a7.83,7.83,0,0,0,4.63-1.92q2.49-1.91,2.59-4,.09-1.81.1-24.6a4.13,4.13,0,0,1,.24-1.91c.2-.33.78-.49,1.75-.49q2.37,0,7.15,0c3.18,0,5.57,0,7.15,0,1,0,1.54.25,1.7.74A5.59,5.59,0,0,1,1341.88,200.31Z"/><path class="cls-2" d="M1394.3,218.25q0,5-3.15,5.63c-.36.07-3.7.43-10,1.08q-5.73.63-17.07,1.52a6.91,6.91,0,0,0,4.12,4.85,14.36,14.36,0,0,0,6.4,1.38,18.15,18.15,0,0,0,8.68-2.36l3.69-2.35c.68.33,1.81,2,3.42,5s2.4,4.92,2.4,5.74c0,.22-.24.6-.73,1.12q-5.93,6.42-18.38,6.42-11.54,0-18.62-6.81-7.27-6.91-7.27-18.48,0-11.27,6.49-18.48,6.71-7.45,17.75-7.45a21,21,0,0,1,15.81,6.86A23,23,0,0,1,1394.3,218.25Zm-17-3a7.68,7.68,0,0,0-2.12-5.35,6.75,6.75,0,0,0-5.1-2.3,6.06,6.06,0,0,0-5,2.6,9,9,0,0,0-1.85,5.64,1.19,1.19,0,0,0,1.36,1.32,84.74,84.74,0,0,0,11.16-1.13Q1377.32,215.8,1377.32,215.26Z"/><path class="cls-2" d="M1456.9,230.5a41.65,41.65,0,0,1-.37,4.46,41,41,0,0,0-.36,4.39,3.46,3.46,0,0,1-.29,1.78,5.65,5.65,0,0,1-1.6,1.13,28.06,28.06,0,0,1-13.87,3.48q-14,0-14-10.83c0-2.15.08-5.4.24-9.73s.24-7.57.24-9.73c0-1.44-.82-2.16-2.47-2.16h-.63a5.22,5.22,0,0,1-.63.06c-1.23,0-1.84-.45-1.84-1.33q0-.78.12-2.4t.12-2.4c0-.69,0-1.73-.12-3.14s-.12-2.45-.12-3.13,1-1,3.1-1.08c1.16,0,1.79-.36,1.89-1a36.26,36.26,0,0,0,.2-5.89q-.2-6.31-.2-6c0-3.78.36-5.68,1.07-5.68a16.72,16.72,0,0,1,3.73.59,31.68,31.68,0,0,0,3.83.73q2.47.34,7.47.94c.81.06,1.21.34,1.21.83,0,1.31-.1,3.28-.31,5.93s-.32,4.64-.32,6q0,2.4,1.41,2.4c1.13,0,2.84-.05,5.14-.15s4-.15,5.19-.15c.71,0,1.06.25,1.06.74,0,.75-.08,1.88-.24,3.38s-.24,2.63-.24,3.38,0,1.93,0,3.44.05,2.64.05,3.43-.47,1-1.41,1c-.65,0-1.73,0-3.25-.08s-2.6-.07-3.25-.07h-3.64q-.72,0-.72,2.16v3.47c0,1.57,0,2.73,0,3.49,0,2.74.3,4.63.92,5.68.87,1.4,2.58,2.11,5.14,2.11a15.79,15.79,0,0,0,3.46-.56,15.42,15.42,0,0,1,3.18-.57Q1456.9,229.42,1456.9,230.5Z"/><path class="cls-2" d="M1506.41,218.25q0,5-3.15,5.63-.52.1-10,1.08-5.71.63-17.07,1.52a6.93,6.93,0,0,0,4.13,4.85,14.3,14.3,0,0,0,6.4,1.38,18.18,18.18,0,0,0,8.68-2.36L1499,228c.68.33,1.82,2,3.42,5s2.4,4.92,2.4,5.74c0,.22-.24.6-.73,1.12q-5.91,6.42-18.37,6.42-11.55,0-18.63-6.81-7.28-6.91-7.27-18.48,0-11.27,6.5-18.48,6.69-7.45,17.75-7.45a21,21,0,0,1,15.81,6.86A23,23,0,0,1,1506.41,218.25Zm-17-3a7.65,7.65,0,0,0-2.13-5.35,6.74,6.74,0,0,0-5.1-2.3,6.09,6.09,0,0,0-5,2.6,9,9,0,0,0-1.84,5.64,1.18,1.18,0,0,0,1.36,1.32,84.62,84.62,0,0,0,11.15-1.13C1488.91,215.88,1489.44,215.62,1489.44,215.26Z"/><path class="cls-2" d="M1584.87,232.12q0,14-5.82,20-6,6.21-20,6.22a63.84,63.84,0,0,1-11.1-1.32c-6-1.12-9-2.42-9-3.93q0-.93,2.08-9.6c.22-.92.58-1.37,1.07-1.37a1.9,1.9,0,0,1,.53.19,31.15,31.15,0,0,0,13.82,3.73,15,15,0,0,0,6.93-1.77c2.78-1.4,4.18-3.16,4.18-5.29v-3.29a17.69,17.69,0,0,1-12.71,4.71,19.13,19.13,0,0,1-15-6.62,22.72,22.72,0,0,1-5.68-15.68q0-9.36,5.44-15.54a18.84,18.84,0,0,1,14.83-6.42q7.32,0,11.2,5.29c.52.72.88,1.08,1.07,1.08s.44-.59.44-1.76c0-2.62.29-3.92.87-3.92s3.31.26,8.39.81,7.71.84,7.91.9a1.23,1.23,0,0,1,.82,1.28c0,2.25-.07,5.62-.22,10.09s-.22,7.85-.22,10.1q0,2,0,6T1584.87,232.12Zm-16.78-13.58a9,9,0,0,0-2.35-6.2,7.88,7.88,0,0,0-11.78,0,9.15,9.15,0,0,0-2.36,6.25,8.77,8.77,0,0,0,2.4,6.17,7.64,7.64,0,0,0,5.85,2.6,7.56,7.56,0,0,0,5.89-2.64A9.09,9.09,0,0,0,1568.09,218.54Z"/><path class="cls-2" d="M1639.91,220.75q0,11.16-6.76,18.13t-17.77,7q-10.68,0-17.56-6.86t-6.89-17.65q0-11.36,6.6-18.45t17.85-7.08q10.95,0,17.74,6.93T1639.91,220.75Zm-15.9,0a10.65,10.65,0,0,0-2.38-6.84,7.53,7.53,0,0,0-6.16-3,7.82,7.82,0,0,0-6.31,3,11.1,11.1,0,0,0,0,13.58,8,8,0,0,0,12.57,0A10.62,10.62,0,0,0,1624,220.75Z"/><path class="cls-2" d="M1663.43,215.36q0,13.38.1,20.53c0,.75,0,2.05.14,3.87s.15,3,.15,3.88c0,.68-.4,1.09-1.22,1.22a52.27,52.27,0,0,1-7.85.39,41.7,41.7,0,0,1-7.42-.39,1.45,1.45,0,0,1-1.21-1.32v-2.11q0-4.37.1-13.06t.09-13q0-20.6,0-18.78a155.3,155.3,0,0,0-1.21-18.67,4.63,4.63,0,0,1-.1-.83q0-1.08,1.26-1.08h17.32q1.2,0,1.11,1l0,.89Q1663.43,199.09,1663.43,215.36Z"/><path class="cls-2" d="M1725.79,221.28q0,10.5-6.11,17.4-6.32,7.17-16.54,7.16a20.11,20.11,0,0,1-8-1.86c-2.84-1.24-4.14-1.86-3.88-1.86q-.63,0-.63,1.47,0,2.49.24,7.52t.24,7.52a1.4,1.4,0,0,1-1.59,1.57l-9.9.05a23.2,23.2,0,0,1-4.31-.24,1.71,1.71,0,0,1-1.46-1.82l.1-37.74a92.88,92.88,0,0,0-1.7-19.26,4.63,4.63,0,0,1-.09-.84,1,1,0,0,1,.58-1,40.13,40.13,0,0,1,7.23-1.57,53.13,53.13,0,0,1,7.51-.84c1.26,0,2,.85,2.16,2.53s.39,2.52.65,2.52q-.48,0,4.15-2.67a17.17,17.17,0,0,1,8.41-2.67q10.53,0,16.83,7Q1725.79,210.46,1725.79,221.28Zm-18-.09a10.62,10.62,0,0,0-2.38-6.86,7.94,7.94,0,0,0-6.35-3.09,7.4,7.4,0,0,0-6.21,3.09,11.36,11.36,0,0,0-2,6.86,10.93,10.93,0,0,0,2.14,6.91,7.49,7.49,0,0,0,6.3,3Q1707.8,231.09,1707.8,221.19Z"/><path class="cls-2" d="M1776.51,218.25q0,5-3.15,5.63c-.36.07-3.7.43-10,1.08q-5.71.63-17.07,1.52a6.94,6.94,0,0,0,4.12,4.85,14.38,14.38,0,0,0,6.41,1.38,18.18,18.18,0,0,0,8.68-2.36l3.68-2.35c.68.33,1.82,2,3.42,5s2.4,4.92,2.4,5.74c0,.22-.24.6-.73,1.12q-5.93,6.42-18.38,6.42-11.53,0-18.62-6.81Q1730,232.56,1730,221q0-11.27,6.5-18.48,6.69-7.45,17.75-7.45a21,21,0,0,1,15.8,6.86A23,23,0,0,1,1776.51,218.25Zm-17-3a7.69,7.69,0,0,0-2.13-5.35,6.74,6.74,0,0,0-5.1-2.3,6.08,6.08,0,0,0-5,2.6,9,9,0,0,0-1.84,5.64,1.18,1.18,0,0,0,1.35,1.32,84.74,84.74,0,0,0,11.16-1.13C1759,215.88,1759.54,215.62,1759.54,215.26Z"/><path class="cls-2" d="M1830.58,220.35q0,3.78.44,11.23t.43,11.17c0,1.31-.56,2-1.69,2.11q-6,.44-13.77.44c-.62,0-1-.94-1.24-2.82s-.46-2.83-.75-2.86a4.53,4.53,0,0,0-1,.83c-3.63,3.69-7.5,5.54-11.64,5.54a19.42,19.42,0,0,1-15.66-7.55,25.56,25.56,0,0,1-5.87-16.86q0-11.33,6.06-18.23,6.3-7.15,17.26-7.16,7.62,0,12,5.39c.13.17.24.25.34.25.29,0,.62-.8,1-2.38s.82-2.38,1.33-2.38a42.87,42.87,0,0,1,6.84,1,66.84,66.84,0,0,1,6.89,1.67c.48.19.72.46.72.78a7.67,7.67,0,0,1-.14,1A109.46,109.46,0,0,0,1830.58,220.35Zm-15.62.3a9.57,9.57,0,0,0-2.59-6.89,9.77,9.77,0,0,0-13.5,0,9.61,9.61,0,0,0-2.57,6.92,9.51,9.51,0,0,0,2.71,6.81,8.77,8.77,0,0,0,6.6,2.85,8.91,8.91,0,0,0,6.73-2.73A9.56,9.56,0,0,0,1815,220.65Z"/><path class="cls-2" d="M1861.47,228.34a30.47,30.47,0,0,1-9.75,22.75,56.91,56.91,0,0,1-4.85,3.92q-4,2.94-5.19,2.94-.72,0-3.44-3.14t-2.71-4.07c0-.36.59-1.22,1.79-2.59a24,24,0,0,0,3.34-4.61,15.44,15.44,0,0,0,1.8-7.36,14.77,14.77,0,0,0-.17-1.83,14.78,14.78,0,0,1-.17-1.79,2.91,2.91,0,0,1,.82-2.06q.58-.58,8-2.45a62,62,0,0,1,8.54-1.76C1860.82,226.29,1861.47,227,1861.47,228.34Z"/><path class="cls-2" d="M666.48,325.67a2.34,2.34,0,0,1-.73,1.32,11,11,0,0,0-2.72-.34,8.53,8.53,0,0,0-4.79,1.27,4.65,4.65,0,0,0-2.33,4.17c0,1.14.82,2.6,2.47,4.36a49.27,49.27,0,0,1,4.6,5.34,14.13,14.13,0,0,1,2.48,8,16.12,16.12,0,0,1-1,5.3,10.28,10.28,0,0,1-2.81,4.5,33.77,33.77,0,0,1-8.39,5.3,24.2,24.2,0,0,1-9.55,2.25q-1,0-4.35-5.31c-2.24-3.55-3.36-5.71-3.36-6.5,0-.29.17-.47.53-.54l6.83-1.27q4.27-1.38,4.27-4.51,0-2.16-2.47-5-4.41-5-4.61-5.24a12.79,12.79,0,0,1-2.47-7.46q0-7.35,7.37-12.5a24.43,24.43,0,0,1,14.11-4.55c.52,0,1.8,1.75,3.84,5.27S666.48,325.08,666.48,325.67Z"/><path class="cls-2" d="M691.4,342.82q0,3.58.14,10.66c.1,4.73.15,8.26.15,10.61,0,.69-.41,1.1-1.21,1.23a55.31,55.31,0,0,1-7.42.29,55.93,55.93,0,0,1-7.47-.29c-.71-.13-1.15-.34-1.31-.64a5.32,5.32,0,0,1-.1-1.47q0-3.37.15-10.17c.1-4.52.14-7.93.14-10.22a181.31,181.31,0,0,0-1.06-22.15,9.75,9.75,0,0,1-.1-1c0-.65.44-1,1.31-1s2.29.1,4.15.29,3.25.3,4.19.3,2.34-.08,4.22-.25,3.28-.24,4.22-.24c.78,0,1.16.32,1.16,1,0,.14,0,.45-.09.94A202.45,202.45,0,0,0,691.4,342.82Zm1.26-36.42q0,8.53-9.51,8.54a10.38,10.38,0,0,1-6.74-2.16,8.26,8.26,0,0,1,.1-12.65,10.21,10.21,0,0,1,6.64-2.25,9.87,9.87,0,0,1,6.55,2.3A7.71,7.71,0,0,1,692.66,306.4Z"/><path class="cls-2" d="M770,338.7c0,3.31-1,5.18-3.15,5.64-.36.07-3.7.43-10,1.08q-5.73.63-17.07,1.52a6.91,6.91,0,0,0,4.12,4.85,14.36,14.36,0,0,0,6.4,1.37,18.14,18.14,0,0,0,8.68-2.35l3.69-2.35c.68.32,1.81,2,3.42,5s2.4,4.92,2.4,5.73c0,.23-.24.61-.73,1.13q-5.93,6.42-18.38,6.42-11.54,0-18.62-6.81-7.28-6.92-7.27-18.48,0-11.26,6.49-18.48,6.7-7.46,17.75-7.45a21,21,0,0,1,15.81,6.86A23,23,0,0,1,770,338.7Zm-17-3a7.65,7.65,0,0,0-2.13-5.35,6.72,6.72,0,0,0-5.09-2.3,6.06,6.06,0,0,0-5,2.6,9,9,0,0,0-1.85,5.64,1.19,1.19,0,0,0,1.36,1.32,84.74,84.74,0,0,0,11.16-1.13Q753,336.26,753,335.72Z"/><path class="cls-2" d="M807.5,334.79c0,1.27-.7,1.91-2.09,1.91-.61,0-1.51-.05-2.69-.13s-2.06-.12-2.65-.12c-2.68,0-4.51.43-5.48,1.27s-1.45,2.57-1.45,5.15q0,2.11.07,6.4t.07,6.4c0,.94.07,2.35.2,4.23s.19,3.28.19,4.19-.53,1.23-1.6,1.33q-2.33.19-7.12.19a72.2,72.2,0,0,1-7.38-.29c-1.06-.13-1.6-.67-1.6-1.61q0-3.93,0-11.75t.05-11.74a72.38,72.38,0,0,0-2.08-19,3.29,3.29,0,0,1-.1-.74,1,1,0,0,1,.73-1c1.78-.2,4.37-.55,7.8-1.08q7.67-1.51,7.9-1.51c.59,0,1,1,1.12,3.08s.45,3.09.87,3.09q-.67,0,4-2.58a18.63,18.63,0,0,1,9-2.57c1.81,0,2.72.39,2.72,1.18a39.74,39.74,0,0,1-.29,4c-.19,1.86-.31,3.2-.34,4s0,2.2,0,3.77C807.46,332.89,807.5,334.16,807.5,334.79Z"/><path class="cls-2" d="M857.58,338.7c0,3.31-1.05,5.18-3.15,5.64-.35.07-3.7.43-10,1.08q-5.73.63-17.07,1.52a6.91,6.91,0,0,0,4.12,4.85,14.3,14.3,0,0,0,6.4,1.37,18.17,18.17,0,0,0,8.68-2.35l3.68-2.35q1,.48,3.42,5t2.4,5.73c0,.23-.24.61-.73,1.13q-5.91,6.42-18.37,6.42-11.55,0-18.63-6.81Q811,353,811,341.45q0-11.26,6.5-18.48,6.69-7.46,17.75-7.45a21,21,0,0,1,15.81,6.86A22.94,22.94,0,0,1,857.58,338.7Zm-17-3a7.65,7.65,0,0,0-2.13-5.35,6.73,6.73,0,0,0-5.09-2.3,6.09,6.09,0,0,0-5,2.6,9,9,0,0,0-1.84,5.64,1.18,1.18,0,0,0,1.36,1.32A84.62,84.62,0,0,0,839,336.5C840.08,336.34,840.61,336.08,840.61,335.72Z"/><path class="cls-2" d="M891.28,325.67a2.37,2.37,0,0,1-.72,1.32,11,11,0,0,0-2.72-.34,8.56,8.56,0,0,0-4.8,1.27,4.67,4.67,0,0,0-2.33,4.17c0,1.14.83,2.6,2.48,4.36a49.27,49.27,0,0,1,4.6,5.34,14.13,14.13,0,0,1,2.48,8,16.12,16.12,0,0,1-1,5.3,10.37,10.37,0,0,1-2.81,4.5,33.77,33.77,0,0,1-8.39,5.3,24.28,24.28,0,0,1-9.56,2.25q-1,0-4.34-5.31c-2.24-3.55-3.37-5.71-3.37-6.5q0-.44.54-.54l6.83-1.27q4.27-1.38,4.27-4.51,0-2.16-2.47-5-4.41-5-4.61-5.24a12.79,12.79,0,0,1-2.47-7.46q0-7.35,7.37-12.5a24.4,24.4,0,0,1,14.11-4.55c.52,0,1.79,1.75,3.83,5.27S891.28,325.08,891.28,325.67Z"/><path class="cls-2" d="M974.5,295.77c0-.72-.13.36-.39,3.23q-.54,5.44-.83,13.93-.39,9.6-.38,21.86,0,20.23,1.11,28.81c.07.63.1,1,.1,1.18,0,.36-.25.57-.73.64q-1.74.24-12.85.24c-1.75,0-2.75-.34-3-1l-.2-3.72a1.44,1.44,0,0,0-.39-.78,3,3,0,0,0-.73.58,17.8,17.8,0,0,1-13.09,5.2q-10.23,0-16.39-7.26-5.87-6.9-5.86-17.44c0-7.13,1.91-13,5.77-17.6q6.11-7.35,16.48-7.35,7.32,0,11.4,4.7c.45.53.77.78,1,.78s.43-.42.43-1.27q0-3.77-.19-11.27T955.54,298c0-.94.25-1.48.77-1.62,2.07-.09,4.92-.29,8.53-.58q9.7-1.23,8.59-1.23C974.14,294.54,974.5,295,974.5,295.77Zm-18.29,45a9.71,9.71,0,0,0-2.66-6.78,8.42,8.42,0,0,0-6.45-2.92,7.7,7.7,0,0,0-6.33,2.92,10.73,10.73,0,0,0-2.35,7,9.86,9.86,0,0,0,2.38,6.71,7.74,7.74,0,0,0,6.3,2.94,8.3,8.3,0,0,0,6.49-2.94A10,10,0,0,0,956.21,340.81Z"/><path class="cls-2" d="M1026.09,338.7c0,3.31-1,5.18-3.15,5.64q-.53.11-10,1.08-5.71.63-17.07,1.52a6.93,6.93,0,0,0,4.13,4.85,14.3,14.3,0,0,0,6.4,1.37,18.17,18.17,0,0,0,8.68-2.35l3.68-2.35q1,.48,3.42,5t2.4,5.73c0,.23-.24.61-.73,1.13q-5.91,6.42-18.37,6.42-11.55,0-18.63-6.81-7.27-6.92-7.27-18.48,0-11.26,6.5-18.48,6.69-7.46,17.75-7.45a21,21,0,0,1,15.81,6.86A23,23,0,0,1,1026.09,338.7Zm-17-3a7.65,7.65,0,0,0-2.13-5.35,6.74,6.74,0,0,0-5.1-2.3,6.09,6.09,0,0,0-5,2.6,9,9,0,0,0-1.84,5.64,1.18,1.18,0,0,0,1.35,1.32,84.58,84.58,0,0,0,11.16-1.13C1008.59,336.34,1009.12,336.08,1009.12,335.72Z"/><path class="cls-2" d="M1088.36,333.07s-1-.26-2.94-.78a18.42,18.42,0,0,0-4.68-.79,9.21,9.21,0,0,0-6.88,2.62,9.53,9.53,0,0,0-2.57,7,9.1,9.1,0,0,0,2.81,7.09,10.44,10.44,0,0,0,7.32,2.57,12.81,12.81,0,0,0,4.8-1.1,21.2,21.2,0,0,0,2.52-1.1c.55,0,1.27,2.07,2.14,6.22a50.22,50.22,0,0,1,1.11,7.55q0,1.86-6,3.19a37,37,0,0,1-7.52,1,23.3,23.3,0,0,1-17.6-7.26,27,27,0,0,1,0-36.15,23.24,23.24,0,0,1,17.58-7.32,25.13,25.13,0,0,1,12.71,3.13c.84.46,1.26.9,1.26,1.33a50.23,50.23,0,0,1-1.45,5.78q-1.37,4.95-1.78,6C1088.93,332.73,1088.65,333.07,1088.36,333.07Z"/><path class="cls-2" d="M1129.73,334.79c0,1.27-.7,1.91-2.09,1.91-.61,0-1.51-.05-2.69-.13s-2.06-.12-2.65-.12c-2.68,0-4.51.43-5.48,1.27s-1.45,2.57-1.45,5.15c0,1.41,0,3.54.07,6.4s.08,5,.08,6.4c0,.94.06,2.35.19,4.23s.19,3.28.19,4.19-.53,1.23-1.6,1.33q-2.33.19-7.12.19a72.33,72.33,0,0,1-7.38-.29c-1.06-.13-1.6-.67-1.6-1.61q0-3.93,0-11.75c0-5.21,0-9.12,0-11.74a72.38,72.38,0,0,0-2.08-19,3.29,3.29,0,0,1-.1-.74,1,1,0,0,1,.73-1c1.78-.2,4.38-.55,7.8-1.08q7.66-1.51,7.91-1.51c.58,0,1,1,1.11,3.08s.45,3.09.87,3.09q-.68,0,4-2.58a18.63,18.63,0,0,1,9-2.57c1.81,0,2.72.39,2.72,1.18a39.74,39.74,0,0,1-.29,4c-.19,1.86-.31,3.2-.34,4s0,2.2.05,3.77C1129.69,332.89,1129.73,334.16,1129.73,334.79Z"/><path class="cls-2" d="M1153.34,342.82q0,3.58.14,10.66c.1,4.73.15,8.26.15,10.61,0,.69-.41,1.1-1.21,1.23a95.71,95.71,0,0,1-14.89,0c-.71-.13-1.15-.34-1.31-.64a5.32,5.32,0,0,1-.1-1.47q0-3.37.15-10.17c.1-4.52.14-7.93.14-10.22a181.31,181.31,0,0,0-1.06-22.15,9.75,9.75,0,0,1-.1-1c0-.65.44-1,1.31-1s2.29.1,4.15.29,3.25.3,4.19.3,2.34-.08,4.22-.25,3.28-.24,4.22-.24c.77,0,1.16.32,1.16,1a8.42,8.42,0,0,1-.1.94A202.67,202.67,0,0,0,1153.34,342.82Zm1.26-36.42q0,8.53-9.51,8.54a10.38,10.38,0,0,1-6.74-2.16,8.26,8.26,0,0,1,.1-12.65,10.19,10.19,0,0,1,6.64-2.25,9.87,9.87,0,0,1,6.55,2.3A7.74,7.74,0,0,1,1154.6,306.4Z"/><path class="cls-2" d="M1191.06,325.67a2.37,2.37,0,0,1-.72,1.32,11,11,0,0,0-2.72-.34,8.56,8.56,0,0,0-4.8,1.27,4.66,4.66,0,0,0-2.32,4.17c0,1.14.82,2.6,2.47,4.36a49.27,49.27,0,0,1,4.6,5.34,14.13,14.13,0,0,1,2.48,8,16.12,16.12,0,0,1-1,5.3,10.37,10.37,0,0,1-2.81,4.5,33.77,33.77,0,0,1-8.39,5.3,24.28,24.28,0,0,1-9.56,2.25q-1,0-4.34-5.31c-2.24-3.55-3.36-5.71-3.36-6.5,0-.29.17-.47.53-.54l6.83-1.27q4.27-1.38,4.27-4.51,0-2.16-2.47-5-4.41-5-4.61-5.24a12.79,12.79,0,0,1-2.47-7.46q0-7.35,7.37-12.5a24.4,24.4,0,0,1,14.11-4.55c.52,0,1.8,1.75,3.83,5.27S1191.06,325.08,1191.06,325.67Z"/><path class="cls-2" d="M1230.49,351a41.65,41.65,0,0,1-.37,4.46,41,41,0,0,0-.36,4.39,3.46,3.46,0,0,1-.29,1.78,5.65,5.65,0,0,1-1.6,1.13A28.06,28.06,0,0,1,1214,366.2q-14,0-14-10.83,0-3.24.24-9.73t.24-9.73c0-1.44-.83-2.16-2.47-2.16h-.63a5,5,0,0,1-.63.05c-1.23,0-1.84-.44-1.84-1.32q0-.78.12-2.4t.12-2.4c0-.69,0-1.73-.12-3.14s-.12-2.45-.12-3.13,1-1,3.1-1.08c1.16,0,1.79-.36,1.89-1a36.13,36.13,0,0,0,.2-5.88q-.19-6.31-.2-6c0-3.78.36-5.68,1.07-5.68a16.72,16.72,0,0,1,3.73.59,33.87,33.87,0,0,0,3.83.73q2.48.35,7.47.93c.8.07,1.21.35,1.21.83,0,1.32-.1,3.29-.31,5.94s-.32,4.64-.32,6q0,2.4,1.41,2.4c1.13,0,2.84,0,5.14-.15s4-.15,5.19-.15c.71,0,1.06.25,1.06.74,0,.75-.08,1.88-.24,3.38s-.24,2.63-.24,3.38,0,1.93,0,3.43,0,2.65,0,3.44-.47,1-1.41,1c-.65,0-1.73,0-3.25-.07s-2.6-.07-3.25-.07h-3.64c-.48,0-.73.72-.73,2.15v3.48c0,1.57,0,2.73,0,3.49q0,4.11.93,5.68c.87,1.4,2.58,2.11,5.14,2.11a15.79,15.79,0,0,0,3.46-.56,15.31,15.31,0,0,1,3.18-.57Q1230.49,349.88,1230.49,351Z"/><path class="cls-2" d="M1284.31,340.81q0,3.78.44,11.23t.44,11.17c0,1.31-.57,2-1.7,2.11q-6,.44-13.77.44c-.62,0-1-.94-1.24-2.82s-.46-2.83-.75-2.87a5,5,0,0,0-1,.84q-5.43,5.54-11.64,5.54a19.45,19.45,0,0,1-15.66-7.55,25.56,25.56,0,0,1-5.87-16.86q0-11.32,6.06-18.23,6.3-7.15,17.27-7.16a14.72,14.72,0,0,1,12,5.39c.13.17.24.25.34.25.29,0,.62-.8,1-2.38s.82-2.38,1.34-2.38a43,43,0,0,1,6.83,1,66.84,66.84,0,0,1,6.89,1.67c.49.19.73.46.73.78a8.5,8.5,0,0,1-.15,1A109.37,109.37,0,0,0,1284.31,340.81Zm-15.61.29a9.57,9.57,0,0,0-2.6-6.88,9.77,9.77,0,0,0-13.5,0,10.25,10.25,0,0,0,.14,13.73,8.76,8.76,0,0,0,6.6,2.84,8.92,8.92,0,0,0,6.74-2.72A9.56,9.56,0,0,0,1268.7,341.1Z"/><path class="cls-2" d="M1311.62,335.81q0,13.38.09,20.54,0,1.13.15,3.87c.1,1.67.14,3,.14,3.87,0,.69-.4,1.1-1.21,1.23a52.27,52.27,0,0,1-7.85.39,41.7,41.7,0,0,1-7.42-.39,1.44,1.44,0,0,1-1.21-1.32v-2.11q0-4.36.09-13.06t.1-13q0-20.58,0-18.77a157.58,157.58,0,0,0-1.21-18.68,4.44,4.44,0,0,1-.1-.83c0-.71.42-1.07,1.26-1.07h17.31c.81,0,1.18.34,1.12,1l0,.88Q1311.62,319.54,1311.62,335.81Z"/><path class="cls-2" d="M1377.76,351a41.65,41.65,0,0,1-.37,4.46,41,41,0,0,0-.36,4.39,3.46,3.46,0,0,1-.29,1.78,5.65,5.65,0,0,1-1.6,1.13,28.06,28.06,0,0,1-13.87,3.48q-14,0-14-10.83,0-3.24.24-9.73t.24-9.73c0-1.44-.82-2.16-2.47-2.16h-.63a4.71,4.71,0,0,1-.63.05c-1.23,0-1.84-.44-1.84-1.32q0-.78.12-2.4t.12-2.4c0-.69,0-1.73-.12-3.14s-.12-2.45-.12-3.13,1-1,3.1-1.08c1.16,0,1.79-.36,1.89-1a36.13,36.13,0,0,0,.2-5.88q-.19-6.31-.2-6c0-3.78.36-5.68,1.07-5.68a16.72,16.72,0,0,1,3.73.59,33.87,33.87,0,0,0,3.83.73q2.48.35,7.47.93c.81.07,1.21.35,1.21.83,0,1.32-.1,3.29-.31,5.94s-.32,4.64-.32,6q0,2.4,1.41,2.4c1.13,0,2.84,0,5.14-.15s4-.15,5.19-.15c.71,0,1.06.25,1.06.74,0,.75-.08,1.88-.24,3.38s-.24,2.63-.24,3.38,0,1.93,0,3.43,0,2.65,0,3.44-.47,1-1.41,1c-.65,0-1.73,0-3.25-.07s-2.6-.07-3.25-.07h-3.64c-.48,0-.72.72-.72,2.15v3.48c0,1.57,0,2.73,0,3.49,0,2.74.3,4.63.92,5.68.87,1.4,2.58,2.11,5.14,2.11a15.79,15.79,0,0,0,3.46-.56,15.42,15.42,0,0,1,3.18-.57Q1377.76,349.88,1377.76,351Z"/><path class="cls-2" d="M1427.27,338.7c0,3.31-1,5.18-3.15,5.64-.36.07-3.7.43-10,1.08q-5.73.63-17.07,1.52a6.91,6.91,0,0,0,4.12,4.85,14.33,14.33,0,0,0,6.4,1.37,18.14,18.14,0,0,0,8.68-2.35q1.85-1.17,3.68-2.35c.69.32,1.82,2,3.43,5s2.39,4.92,2.39,5.73c0,.23-.24.61-.72,1.13q-5.92,6.42-18.38,6.42-11.53,0-18.62-6.81-7.27-6.92-7.27-18.48,0-11.26,6.49-18.48,6.69-7.46,17.75-7.45a21,21,0,0,1,15.81,6.86A23,23,0,0,1,1427.27,338.7Zm-17-3a7.65,7.65,0,0,0-2.13-5.35,6.72,6.72,0,0,0-5.09-2.3,6.06,6.06,0,0,0-5,2.6,9,9,0,0,0-1.85,5.64,1.19,1.19,0,0,0,1.36,1.32,84.62,84.62,0,0,0,11.15-1.13C1409.76,336.34,1410.29,336.08,1410.29,335.72Z"/><path class="cls-2" d="M1489.58,334.79c0,1.27-.69,1.91-2.09,1.91-.61,0-1.5-.05-2.69-.13s-2-.12-2.64-.12c-2.68,0-4.51.43-5.48,1.27s-1.45,2.57-1.45,5.15q0,2.11.07,6.4t.07,6.4c0,.94.07,2.35.2,4.23s.19,3.28.19,4.19-.53,1.23-1.6,1.33q-2.33.19-7.13.19a72,72,0,0,1-7.37-.29c-1.07-.13-1.6-.67-1.6-1.61q0-3.93,0-11.75t.05-11.74a71.91,71.91,0,0,0-2.09-19,4,4,0,0,1-.1-.74,1,1,0,0,1,.73-1c1.78-.2,4.38-.55,7.81-1.08q7.66-1.51,7.9-1.51c.59,0,1,1,1.12,3.08s.45,3.09.87,3.09q-.68,0,4-2.58a18.57,18.57,0,0,1,9-2.57c1.81,0,2.71.39,2.71,1.18a37,37,0,0,1-.29,4q-.29,2.79-.33,4c0,.94,0,2.2,0,3.77C1489.55,332.89,1489.58,334.16,1489.58,334.79Z"/><path class="cls-2" d="M1541.91,341.21q0,11.16-6.77,18.13t-17.77,7q-10.66,0-17.55-6.86t-6.89-17.65q0-11.37,6.6-18.45t17.84-7.08q11,0,17.75,6.93T1541.91,341.21Zm-15.91,0a10.59,10.59,0,0,0-2.38-6.84,7.5,7.5,0,0,0-6.15-3,7.8,7.8,0,0,0-6.31,3,11.1,11.1,0,0,0,0,13.58,8,8,0,0,0,12.56,0A10.56,10.56,0,0,0,1526,341.21Z"/><path class="cls-2" d="M1625.26,363.51c0,1.14-.48,1.78-1.45,1.91s-3.37.19-7.18.19a52.16,52.16,0,0,1-7.37-.29c-1-.2-1.46-1-1.46-2.4s0-3.75.15-6.74.14-5.24.14-6.74q0-8.58-.19-12.2-.29-5.83-5.48-5.84a7,7,0,0,0-4.54,1.94,6.53,6.53,0,0,0-2.49,4.29q-.2,2.06-.2,12.06c0,1.53.06,3.86.15,7s.15,5.47.15,7c0,1.07-.47,1.61-1.41,1.61h-14.69c-.91,0-1.36-.67-1.36-2,0-1.53,0-3.84.14-6.91s.15-5.39.15-7c0-1.21,0-3-.1-5.49s-.1-4.3-.1-5.54c0-4.67-1.75-7-5.28-7a8.44,8.44,0,0,0-4.61,1.67q-2.71,1.81-2.71,3.82,0,4.46,0,13.33t0,13.29a2.52,2.52,0,0,1-.29,1.52,2.86,2.86,0,0,1-1.51.39c-1.45.13-3.75.19-6.88.19-2,0-4.35-.09-6.94-.29a2.57,2.57,0,0,1-1.38-.34,2.8,2.8,0,0,1-.22-1.47c0-2.61,0-6.53,0-11.74s0-9.13,0-11.74a160,160,0,0,0-1.16-18.09,5.29,5.29,0,0,1-.1-.88,1.11,1.11,0,0,1,.68-1.13,16.91,16.91,0,0,1,4-.73c2.43-.23,3.87-.38,4.32-.44s1.6-.41,3.83-1a14.47,14.47,0,0,1,3.83-.69c.61,0,.94,1.14,1,3.41s.16,3.41.39,3.41a5.21,5.21,0,0,0,1.11-.69,45.77,45.77,0,0,1,6.89-4.71,18.28,18.28,0,0,1,8.1-1.81,15.66,15.66,0,0,1,7.95,2,10.42,10.42,0,0,1,5.09,6.32,20.49,20.49,0,0,1,7.08-5.93,18.64,18.64,0,0,1,8.78-2.4q6.39,0,10.43,3a11.31,11.31,0,0,1,4.55,9.65q0,2.59-.14,7.82t-.15,7.82q0,3.09.15,9.29T1625.26,363.51Z"/><path class="cls-2" d="M1688,341.74q0,10.5-6.11,17.4-6.3,7.17-16.54,7.16a20.11,20.11,0,0,1-8-1.86q-4.26-1.86-3.88-1.86c-.42,0-.63.49-.63,1.46q0,2.5.25,7.53t.24,7.52a1.4,1.4,0,0,1-1.6,1.57l-9.89,0a23.34,23.34,0,0,1-4.32-.24,1.7,1.7,0,0,1-1.45-1.82l.09-37.74a92.2,92.2,0,0,0-1.7-19.26,4.73,4.73,0,0,1-.09-.84,1,1,0,0,1,.58-1,39.46,39.46,0,0,1,7.23-1.57,53.13,53.13,0,0,1,7.51-.84c1.26,0,2,.85,2.16,2.53s.4,2.52.66,2.52q-.49,0,4.14-2.67a17.17,17.17,0,0,1,8.41-2.67q10.53,0,16.83,7Q1688,330.92,1688,341.74Zm-18-.09a10.55,10.55,0,0,0-2.38-6.86,7.94,7.94,0,0,0-6.35-3.09,7.38,7.38,0,0,0-6.2,3.09,11.27,11.27,0,0,0-2,6.86,10.93,10.93,0,0,0,2.13,6.91,7.5,7.5,0,0,0,6.31,3Q1670,351.55,1670,341.65Z"/><path class="cls-2" d="M1738.68,338.7c0,3.31-1,5.18-3.15,5.64-.35.07-3.7.43-10,1.08q-5.73.63-17.07,1.52a6.91,6.91,0,0,0,4.12,4.85,14.3,14.3,0,0,0,6.4,1.37,18.17,18.17,0,0,0,8.68-2.35l3.68-2.35q1,.48,3.42,5t2.4,5.73c0,.23-.24.61-.73,1.13q-5.91,6.42-18.37,6.42-11.55,0-18.63-6.81-7.26-6.92-7.27-18.48,0-11.26,6.5-18.48,6.69-7.46,17.75-7.45a21,21,0,0,1,15.81,6.86A22.94,22.94,0,0,1,1738.68,338.7Zm-17-3a7.65,7.65,0,0,0-2.13-5.35,6.73,6.73,0,0,0-5.09-2.3,6.09,6.09,0,0,0-5,2.6,9,9,0,0,0-1.84,5.64,1.18,1.18,0,0,0,1.36,1.32,84.62,84.62,0,0,0,11.15-1.13C1721.18,336.34,1721.71,336.08,1721.71,335.72Z"/><path class="cls-2" d="M1776.17,334.79c0,1.27-.7,1.91-2.09,1.91-.61,0-1.51-.05-2.69-.13s-2.06-.12-2.64-.12c-2.68,0-4.51.43-5.48,1.27s-1.46,2.57-1.46,5.15q0,2.11.08,6.4t.07,6.4c0,.94.07,2.35.2,4.23s.19,3.28.19,4.19-.54,1.23-1.6,1.33q-2.32.19-7.13.19a72,72,0,0,1-7.37-.29c-1.07-.13-1.6-.67-1.6-1.61q0-3.93,0-11.75c0-5.21,0-9.12,0-11.74q0-11.5-2.08-19a4,4,0,0,1-.1-.74,1,1,0,0,1,.73-1c1.78-.2,4.38-.55,7.81-1.08q7.67-1.51,7.9-1.51c.59,0,1,1,1.12,3.08s.45,3.09.87,3.09q-.67,0,4-2.58a18.57,18.57,0,0,1,9-2.57c1.81,0,2.71.39,2.71,1.18a37,37,0,0,1-.29,4q-.28,2.79-.33,4c0,.94,0,2.2,0,3.77C1776.14,332.89,1776.17,334.16,1776.17,334.79Z"/><path class="cls-2" d="M1830.58,340.81q0,3.78.44,11.23t.43,11.17c0,1.31-.56,2-1.69,2.11q-6,.44-13.77.44c-.62,0-1-.94-1.24-2.82s-.46-2.83-.75-2.87a5,5,0,0,0-1,.84c-3.63,3.69-7.5,5.54-11.64,5.54a19.42,19.42,0,0,1-15.66-7.55,25.56,25.56,0,0,1-5.87-16.86q0-11.32,6.06-18.23,6.3-7.15,17.26-7.16,7.62,0,12,5.39c.13.17.24.25.34.25.29,0,.62-.8,1-2.38s.82-2.38,1.33-2.38a42.87,42.87,0,0,1,6.84,1,66.84,66.84,0,0,1,6.89,1.67c.48.19.72.46.72.78a7.67,7.67,0,0,1-.14,1A109.37,109.37,0,0,0,1830.58,340.81Zm-15.62.29a9.56,9.56,0,0,0-2.59-6.88,9.77,9.77,0,0,0-13.5,0,10.25,10.25,0,0,0,.14,13.73,8.76,8.76,0,0,0,6.6,2.84,8.9,8.9,0,0,0,6.73-2.72A9.56,9.56,0,0,0,1815,341.1Zm-17.21-28.28c-.61,0-.92-.3-.92-1a10.63,10.63,0,0,1,.1-1.23c.06-.56.09-1,.09-1.27a13.57,13.57,0,0,0-.17-1.82,15.21,15.21,0,0,1-.17-1.81c0-.46.34-.81,1-1.08a88.55,88.55,0,0,0,9.21-4.85q3-2.16,9-6.42a3,3,0,0,1,1-.49,2.49,2.49,0,0,1,.82.49c.75.78,1.92,1.9,3.54,3.33.91.52,2.23,1.36,4,2.5.51.36.77.69.77,1s-.22.6-.68,1q-4.26,4.06-12.8,7.72t-14.31,3.94Z"/><path class="cls-2" d="M1861.47,348.8a30.47,30.47,0,0,1-9.75,22.75,59,59,0,0,1-4.85,3.92q-4,2.94-5.19,2.94-.72,0-3.44-3.14t-2.71-4.07c0-.36.59-1.22,1.79-2.59a24,24,0,0,0,3.34-4.61,15.44,15.44,0,0,0,1.8-7.36,15.06,15.06,0,0,0-.17-1.84,14.66,14.66,0,0,1-.17-1.78,2.91,2.91,0,0,1,.82-2.06q.58-.58,8-2.45a62.81,62.81,0,0,1,8.54-1.77C1860.82,346.74,1861.47,347.43,1861.47,348.8Z"/><path class="cls-2" d="M989.34,462.2q0,10.49-6.11,17.4-6.32,7.15-16.54,7.16a20.14,20.14,0,0,1-8-1.87q-4.26-1.86-3.88-1.86-.63,0-.63,1.47,0,2.49.25,7.52t.24,7.52a1.4,1.4,0,0,1-1.6,1.57l-9.89.05a23.26,23.26,0,0,1-4.32-.24,1.7,1.7,0,0,1-1.45-1.82l.09-37.73a92.92,92.92,0,0,0-1.7-19.27,4.63,4.63,0,0,1-.09-.83,1,1,0,0,1,.58-1,41.05,41.05,0,0,1,7.23-1.57,52.72,52.72,0,0,1,7.51-.83q1.89,0,2.16,2.52c.17,1.68.39,2.53.65,2.53q-.48,0,4.15-2.68a17.17,17.17,0,0,1,8.41-2.67q10.53,0,16.83,7Q989.33,451.37,989.34,462.2Zm-18-.1a10.62,10.62,0,0,0-2.38-6.86,7.94,7.94,0,0,0-6.35-3.09,7.41,7.41,0,0,0-6.21,3.09,11.38,11.38,0,0,0-2,6.86,10.93,10.93,0,0,0,2.13,6.91,7.47,7.47,0,0,0,6.31,3Q971.36,472,971.35,462.1Z"/><path class="cls-2" d="M1040.06,459.16q0,4.95-3.15,5.63-.53.1-10,1.08-5.71.64-17.07,1.53a6.93,6.93,0,0,0,4.13,4.85,14.44,14.44,0,0,0,6.4,1.37,18.18,18.18,0,0,0,8.68-2.36l3.68-2.35c.68.33,1.82,2,3.42,5s2.4,4.92,2.4,5.74c0,.23-.24.6-.73,1.13q-5.91,6.42-18.37,6.42-11.55,0-18.63-6.82-7.28-6.92-7.27-18.48,0-11.26,6.5-18.48,6.69-7.44,17.75-7.44a21,21,0,0,1,15.81,6.86A23,23,0,0,1,1040.06,459.16Zm-17-3a7.61,7.61,0,0,0-2.13-5.34,6.71,6.71,0,0,0-5.1-2.31,6.11,6.11,0,0,0-5,2.6,9,9,0,0,0-1.84,5.64,1.18,1.18,0,0,0,1.35,1.32,82.86,82.86,0,0,0,11.16-1.13C1022.56,456.79,1023.09,456.53,1023.09,456.17Z"/><path class="cls-2" d="M1077.55,455.24c0,1.27-.7,1.91-2.09,1.91-.61,0-1.51,0-2.69-.12s-2.06-.12-2.64-.12q-4,0-5.48,1.27c-1,.85-1.46,2.56-1.46,5.15,0,1.4,0,3.53.07,6.39s.08,5,.08,6.4c0,.95.06,2.36.19,4.24s.19,3.27.19,4.19-.53,1.22-1.59,1.32c-1.56.13-3.93.2-7.13.2a71.51,71.51,0,0,1-7.37-.3c-1.07-.13-1.6-.66-1.6-1.61q0-3.93,0-11.74c0-5.22,0-9.12,0-11.74q0-11.52-2.08-19a3.29,3.29,0,0,1-.1-.74,1,1,0,0,1,.73-1q2.67-.3,7.8-1.08,7.66-1.51,7.91-1.52.87,0,1.11,3.09c.17,2.05.46,3.08.88,3.08q-.67,0,4-2.57a18.52,18.52,0,0,1,9-2.57c1.82,0,2.72.39,2.72,1.17a39.74,39.74,0,0,1-.29,4c-.19,1.86-.31,3.21-.34,4s0,2.21,0,3.77C1077.51,453.34,1077.55,454.62,1077.55,455.24Z"/><path class="cls-2" d="M1129.87,461.66q0,11.18-6.77,18.13t-17.77,7q-10.66,0-17.55-6.87t-6.89-17.64q0-11.37,6.6-18.46t17.84-7.08q11,0,17.75,6.94T1129.87,461.66Zm-15.91,0a10.61,10.61,0,0,0-2.38-6.84,7.52,7.52,0,0,0-6.15-3,7.77,7.77,0,0,0-6.31,3,11.08,11.08,0,0,0,0,13.57,8,8,0,0,0,12.56,0A10.53,10.53,0,0,0,1114,461.66Z"/><path class="cls-2" d="M1188.93,446.12a2.31,2.31,0,0,1-.73,1.32,11.37,11.37,0,0,0-2.71-.34,8.46,8.46,0,0,0-4.8,1.28,4.65,4.65,0,0,0-2.33,4.16c0,1.15.83,2.6,2.48,4.37a47.34,47.34,0,0,1,4.6,5.34,14.17,14.17,0,0,1,2.47,8,16.3,16.3,0,0,1-1,5.29,10.42,10.42,0,0,1-2.82,4.51,33.28,33.28,0,0,1-8.39,5.29,24.05,24.05,0,0,1-9.55,2.26c-.65,0-2.09-1.78-4.34-5.32s-3.37-5.71-3.37-6.5c0-.29.18-.47.53-.53l6.84-1.28c2.84-.91,4.27-2.42,4.27-4.51,0-1.44-.82-3.1-2.48-5-2.94-3.3-4.48-5.05-4.6-5.24a12.76,12.76,0,0,1-2.47-7.45q0-7.35,7.36-12.5a24.37,24.37,0,0,1,14.12-4.56q.77,0,3.83,5.27T1188.93,446.12Z"/><path class="cls-2" d="M1213.86,463.27c0,2.39.05,5.94.14,10.67s.15,8.25.15,10.61c0,.69-.41,1.09-1.21,1.22a54.66,54.66,0,0,1-7.42.3,55.28,55.28,0,0,1-7.47-.3c-.71-.13-1.15-.34-1.31-.63a5.37,5.37,0,0,1-.1-1.47q0-3.39.15-10.17c.1-4.53.14-7.94.14-10.23a181.31,181.31,0,0,0-1.06-22.15,9.52,9.52,0,0,1-.1-1c0-.65.44-1,1.31-1s2.29.1,4.15.3,3.25.29,4.19.29,2.34-.08,4.22-.25,3.28-.24,4.22-.24c.78,0,1.16.33,1.16,1q0,.19-.09.93A202.45,202.45,0,0,0,1213.86,463.27Zm1.26-36.41q0,8.52-9.5,8.53a10.39,10.39,0,0,1-6.75-2.16,8.24,8.24,0,0,1,.1-12.64,10.17,10.17,0,0,1,6.65-2.26,9.87,9.87,0,0,1,6.54,2.31A7.69,7.69,0,0,1,1215.12,426.86Z"/><path class="cls-2" d="M1292.46,459.16q0,4.95-3.15,5.63c-.35.07-3.7.43-10,1.08q-5.73.64-17.07,1.53a6.91,6.91,0,0,0,4.12,4.85,14.44,14.44,0,0,0,6.4,1.37,18.18,18.18,0,0,0,8.68-2.36l3.68-2.35c.68.33,1.82,2,3.42,5s2.4,4.92,2.4,5.74c0,.23-.24.6-.73,1.13q-5.91,6.42-18.37,6.42-11.55,0-18.63-6.82-7.26-6.92-7.27-18.48,0-11.26,6.5-18.48,6.69-7.44,17.75-7.44a20.94,20.94,0,0,1,15.81,6.86A22.93,22.93,0,0,1,1292.46,459.16Zm-17-3a7.61,7.61,0,0,0-2.13-5.34,6.71,6.71,0,0,0-5.09-2.31,6.12,6.12,0,0,0-5,2.6,9,9,0,0,0-1.84,5.64,1.18,1.18,0,0,0,1.36,1.32,82.9,82.9,0,0,0,11.15-1.13C1275,456.79,1275.49,456.53,1275.49,456.17Z"/><path class="cls-2" d="M1330,455.24c0,1.27-.7,1.91-2.09,1.91-.61,0-1.51,0-2.69-.12s-2.06-.12-2.64-.12q-4,0-5.48,1.27c-1,.85-1.46,2.56-1.46,5.15,0,1.4,0,3.53.07,6.39s.08,5,.08,6.4c0,.95.07,2.36.2,4.24s.19,3.27.19,4.19-.54,1.22-1.6,1.32q-2.33.19-7.13.2a71.51,71.51,0,0,1-7.37-.3c-1.07-.13-1.6-.66-1.6-1.61q0-3.93,0-11.74c0-5.22,0-9.12,0-11.74q0-11.52-2.08-19a4,4,0,0,1-.1-.74,1,1,0,0,1,.73-1q2.67-.3,7.81-1.08c5.1-1,7.74-1.52,7.9-1.52.59,0,1,1,1.12,3.09s.45,3.08.87,3.08c-.45,0,.87-.86,4-2.57a18.46,18.46,0,0,1,9-2.57c1.81,0,2.71.39,2.71,1.17a37,37,0,0,1-.29,4c-.19,1.86-.3,3.21-.33,4s0,2.21,0,3.77C1329.92,453.34,1330,454.62,1330,455.24Z"/><path class="cls-2" d="M1380,459.16q0,4.95-3.15,5.63c-.36.07-3.7.43-10,1.08q-5.73.64-17.07,1.53a6.91,6.91,0,0,0,4.12,4.85,14.5,14.5,0,0,0,6.4,1.37,18.15,18.15,0,0,0,8.68-2.36l3.69-2.35c.68.33,1.81,2,3.42,5s2.4,4.92,2.4,5.74c0,.23-.24.6-.73,1.13q-5.92,6.42-18.38,6.42-11.54,0-18.62-6.82-7.27-6.92-7.27-18.48,0-11.26,6.49-18.48,6.7-7.44,17.75-7.44a20.93,20.93,0,0,1,15.81,6.86A22.93,22.93,0,0,1,1380,459.16Zm-17-3a7.64,7.64,0,0,0-2.12-5.34,6.73,6.73,0,0,0-5.1-2.31,6.09,6.09,0,0,0-5,2.6,9,9,0,0,0-1.85,5.64,1.19,1.19,0,0,0,1.36,1.32,83,83,0,0,0,11.16-1.13Q1363.06,456.71,1363.06,456.17Z"/><path class="cls-2" d="M1413.74,446.12a2.31,2.31,0,0,1-.73,1.32,11.43,11.43,0,0,0-2.71-.34,8.46,8.46,0,0,0-4.8,1.28,4.65,4.65,0,0,0-2.33,4.16c0,1.15.83,2.6,2.47,4.37a47.83,47.83,0,0,1,4.61,5.34,14.17,14.17,0,0,1,2.47,8,16.3,16.3,0,0,1-1,5.29,10.42,10.42,0,0,1-2.82,4.51,33.28,33.28,0,0,1-8.39,5.29,24.05,24.05,0,0,1-9.55,2.26c-.65,0-2.1-1.78-4.34-5.32s-3.37-5.71-3.37-6.5c0-.29.18-.47.53-.53l6.84-1.28c2.84-.91,4.27-2.42,4.27-4.51,0-1.44-.83-3.1-2.48-5-2.94-3.3-4.48-5.05-4.6-5.24a12.7,12.7,0,0,1-2.48-7.45q0-7.35,7.37-12.5a24.37,24.37,0,0,1,14.12-4.56q.77,0,3.83,5.27T1413.74,446.12Z"/><path class="cls-2" d="M1497,416.22q0-1.08-.39,3.24c-.36,3.63-.63,8.26-.83,13.92q-.39,9.6-.38,21.86,0,20.24,1.11,28.82c.07.62.1,1,.1,1.18,0,.36-.25.56-.73.63q-1.74.25-12.85.25c-1.75,0-2.75-.35-3-1l-.2-3.73a1.44,1.44,0,0,0-.39-.78,3.1,3.1,0,0,0-.73.59,17.84,17.84,0,0,1-13.09,5.19q-10.23,0-16.39-7.25-5.87-6.92-5.86-17.45c0-7.12,1.91-13,5.77-17.6q6.11-7.35,16.48-7.35,7.32,0,11.4,4.7c.45.53.77.79,1,.79s.43-.42.43-1.27q0-3.78-.19-11.28t-.19-11.22c0-.95.25-1.49.77-1.62,2.07-.1,4.92-.3,8.53-.59q9.71-1.22,8.59-1.22C1496.6,415,1497,415.41,1497,416.22Zm-18.29,45a9.73,9.73,0,0,0-2.66-6.79,8.45,8.45,0,0,0-6.45-2.92,7.73,7.73,0,0,0-6.33,2.92,10.75,10.75,0,0,0-2.35,7,9.88,9.88,0,0,0,2.38,6.72,7.77,7.77,0,0,0,6.3,2.94,8.34,8.34,0,0,0,6.49-2.94A10,10,0,0,0,1478.67,461.27Z"/><path class="cls-2" d="M1548.55,459.16q0,4.95-3.15,5.63-.53.1-10,1.08-5.71.64-17.07,1.53a6.93,6.93,0,0,0,4.13,4.85,14.44,14.44,0,0,0,6.4,1.37,18.18,18.18,0,0,0,8.68-2.36l3.68-2.35c.68.33,1.82,2,3.42,5s2.4,4.92,2.4,5.74c0,.23-.24.6-.73,1.13q-5.91,6.42-18.37,6.42-11.55,0-18.63-6.82-7.27-6.92-7.27-18.48,0-11.26,6.5-18.48,6.69-7.44,17.75-7.44a21,21,0,0,1,15.81,6.86A23,23,0,0,1,1548.55,459.16Zm-17-3a7.61,7.61,0,0,0-2.13-5.34,6.71,6.71,0,0,0-5.1-2.31,6.11,6.11,0,0,0-5,2.6,9,9,0,0,0-1.84,5.64,1.18,1.18,0,0,0,1.35,1.32A82.86,82.86,0,0,0,1530,457C1531.05,456.79,1531.58,456.53,1531.58,456.17Z"/><path class="cls-2" d="M1627.11,450.24l-.1,33.82c0,1.14-.45,1.78-1.36,1.91s-3.39.19-7.08.19a45.88,45.88,0,0,1-7.42-.39,1.86,1.86,0,0,1-1.6-2.1q0-4.21.15-12.7t.14-12.69c0-3.82-1.92-5.74-5.77-5.74a9.22,9.22,0,0,0-4.56,1.57q-2.87,1.72-2.86,3.58V469.8c0,1.57,0,3.92.1,7.08s.1,5.51.1,7.08q0,1.82-1.5,2t-8.44.19a28.54,28.54,0,0,1-5.72-.39c-1.17-.26-1.75-.83-1.75-1.71,0-2.58,0-6.46,0-11.64s0-9.06,0-11.64q0-16-.33-26.52-.15-3.67-.25-7.35a50.62,50.62,0,0,0-.87-7.31,4.5,4.5,0,0,1-.15-.93,1,1,0,0,1,.73-1,19.47,19.47,0,0,1,4.41-.54c2.59-.09,4.1-.17,4.52-.24l8.77-1c.52,0,.78.34.78,1,0,1-.07,2.47-.2,4.26-.13,2.09-.19,3.52-.19,4.27q-.29,11.07-.29,17.5c0,.65.16,1,.48,1,.07,0,.89-.57,2.48-1.71a32.88,32.88,0,0,1,5.38-3.19,18.15,18.15,0,0,1,7.42-1.71,16.28,16.28,0,0,1,10.37,3.28A11.6,11.6,0,0,1,1627.11,450.24Z"/><path class="cls-2" d="M1653,463.27c0,2.39,0,5.94.15,10.67s.14,8.25.14,10.61c0,.69-.4,1.09-1.21,1.22a54.66,54.66,0,0,1-7.42.3,55.28,55.28,0,0,1-7.47-.3c-.71-.13-1.14-.34-1.31-.63a6.12,6.12,0,0,1-.09-1.47q0-3.39.14-10.17t.15-10.23a181,181,0,0,0-1.07-22.15c-.06-.52-.09-.87-.09-1,0-.65.43-1,1.3-1s2.29.1,4.15.3,3.26.29,4.19.29,2.35-.08,4.22-.25,3.29-.24,4.22-.24c.78,0,1.16.33,1.16,1q0,.19-.09.93A202.45,202.45,0,0,0,1653,463.27Zm1.26-36.41q0,8.52-9.5,8.53a10.34,10.34,0,0,1-6.74-2.16,8.23,8.23,0,0,1,.1-12.64,10.12,10.12,0,0,1,6.64-2.26,9.87,9.87,0,0,1,6.54,2.31A7.69,7.69,0,0,1,1654.21,426.86Z"/><path class="cls-2" d="M1706.73,459.16q0,4.95-3.15,5.63-.52.1-10,1.08-5.71.64-17.07,1.53a6.93,6.93,0,0,0,4.13,4.85,14.44,14.44,0,0,0,6.4,1.37,18.18,18.18,0,0,0,8.68-2.36l3.68-2.35c.68.33,1.82,2,3.42,5s2.4,4.92,2.4,5.74c0,.23-.24.6-.73,1.13q-5.91,6.42-18.37,6.42-11.55,0-18.63-6.82-7.28-6.92-7.27-18.48,0-11.26,6.5-18.48,6.69-7.44,17.75-7.44a21,21,0,0,1,15.81,6.86A23,23,0,0,1,1706.73,459.16Zm-17-3a7.61,7.61,0,0,0-2.13-5.34,6.71,6.71,0,0,0-5.1-2.31,6.11,6.11,0,0,0-5,2.6,9,9,0,0,0-1.84,5.64,1.18,1.18,0,0,0,1.35,1.32,82.86,82.86,0,0,0,11.16-1.13C1689.23,456.79,1689.76,456.53,1689.76,456.17Z"/><path class="cls-2" d="M1744.22,455.24c0,1.27-.7,1.91-2.09,1.91-.61,0-1.51,0-2.69-.12s-2.06-.12-2.64-.12q-4,0-5.48,1.27c-1,.85-1.46,2.56-1.46,5.15,0,1.4,0,3.53.07,6.39s.08,5,.08,6.4c0,.95.06,2.36.19,4.24s.19,3.27.19,4.19-.53,1.22-1.59,1.32c-1.56.13-3.93.2-7.13.2a71.51,71.51,0,0,1-7.37-.3c-1.07-.13-1.6-.66-1.6-1.61q0-3.93,0-11.74c0-5.22,0-9.12,0-11.74q0-11.52-2.08-19a3.29,3.29,0,0,1-.1-.74,1,1,0,0,1,.73-1q2.67-.3,7.8-1.08,7.66-1.51,7.91-1.52c.58,0,1,1,1.12,3.09s.45,3.08.87,3.08q-.68,0,4-2.57a18.52,18.52,0,0,1,9-2.57c1.82,0,2.72.39,2.72,1.17a39.74,39.74,0,0,1-.29,4c-.19,1.86-.31,3.21-.34,4s0,2.21,0,3.77C1744.18,453.34,1744.22,454.62,1744.22,455.24Z"/><path class="cls-2" d="M1782,455.24c0,1.27-.7,1.91-2.09,1.91-.61,0-1.51,0-2.69-.12s-2.06-.12-2.64-.12q-4,0-5.48,1.27c-1,.85-1.45,2.56-1.45,5.15q0,2.1.07,6.39t.07,6.4c0,.95.07,2.36.2,4.24s.19,3.27.19,4.19-.53,1.22-1.6,1.32q-2.32.19-7.13.2a71.51,71.51,0,0,1-7.37-.3c-1.07-.13-1.6-.66-1.6-1.61q0-3.93,0-11.74c0-5.22,0-9.12,0-11.74q0-11.52-2.09-19a4,4,0,0,1-.1-.74,1,1,0,0,1,.73-1q2.67-.3,7.81-1.08,7.66-1.51,7.9-1.52c.59,0,1,1,1.12,3.09s.45,3.08.87,3.08q-.67,0,4-2.57a18.46,18.46,0,0,1,9-2.57c1.81,0,2.71.39,2.71,1.17a37,37,0,0,1-.29,4c-.19,1.86-.3,3.21-.33,4s0,2.21,0,3.77C1782,453.34,1782,454.62,1782,455.24Z"/><path class="cls-2" d="M1834.36,461.66q0,11.18-6.76,18.13t-17.77,7q-10.66,0-17.56-6.87t-6.88-17.64q0-11.37,6.59-18.46t17.85-7.08q11,0,17.75,6.94T1834.36,461.66Zm-15.9,0a10.61,10.61,0,0,0-2.38-6.84,7.54,7.54,0,0,0-6.15-3,7.77,7.77,0,0,0-6.31,3,11,11,0,0,0,0,13.57,8,8,0,0,0,12.56,0A10.53,10.53,0,0,0,1818.46,461.66Z"/><path class="cls-2" d="M1861.47,469.25a30.47,30.47,0,0,1-9.75,22.75,56.91,56.91,0,0,1-4.85,3.92q-4,2.94-5.19,2.94-.72,0-3.44-3.14c-1.81-2.09-2.71-3.45-2.71-4.06,0-.36.59-1.23,1.79-2.6a23.66,23.66,0,0,0,3.34-4.61,15.43,15.43,0,0,0,1.8-7.35,14.9,14.9,0,0,0-.17-1.84,14.78,14.78,0,0,1-.17-1.79,2.93,2.93,0,0,1,.82-2.06c.39-.39,3.07-1.2,8-2.45a63.72,63.72,0,0,1,8.54-1.76C1860.82,467.2,1861.47,467.88,1861.47,469.25Z"/><path class="cls-2" d="M1505.69,591.87a41.65,41.65,0,0,1-.37,4.46,41,41,0,0,0-.36,4.39,3.39,3.39,0,0,1-.3,1.79,6,6,0,0,1-1.59,1.13,28.19,28.19,0,0,1-13.87,3.47q-14,0-14-10.83c0-2.15.08-5.4.25-9.73s.24-7.57.24-9.73c0-1.43-.83-2.15-2.48-2.15h-.63l-.62.05c-1.24,0-1.85-.44-1.85-1.32,0-.53,0-1.33.12-2.41s.12-1.88.12-2.4c0-.69,0-1.73-.12-3.14s-.12-2.45-.12-3.13,1-1,3.1-1.08c1.17,0,1.8-.36,1.9-1a37.77,37.77,0,0,0,.19-5.89q-.19-6.32-.19-6,0-5.69,1.06-5.69a17.32,17.32,0,0,1,3.74.59,34.62,34.62,0,0,0,3.83.74c1.65.22,4.13.53,7.47.93.8.06,1.21.34,1.21.83,0,1.31-.11,3.28-.32,5.93s-.31,4.64-.31,6c0,1.6.47,2.4,1.4,2.4,1.14,0,2.85,0,5.14-.15s4-.14,5.19-.14c.71,0,1.07.24,1.07.73,0,.76-.08,1.88-.24,3.38a33,33,0,0,0-.25,3.38c0,.79,0,1.93.05,3.44s0,2.65,0,3.43-.47,1-1.4,1c-.65,0-1.74,0-3.25-.07s-2.6-.08-3.25-.08h-3.64c-.48,0-.73.72-.73,2.16v3.48c0,1.57,0,2.72,0,3.48,0,2.74.31,4.64.92,5.68q1.32,2.12,5.14,2.11a15.78,15.78,0,0,0,3.47-.56,15.25,15.25,0,0,1,3.17-.57C1505.35,590.79,1505.69,591.16,1505.69,591.87Z"/><path class="cls-2" d="M1555.19,579.62q0,4.95-3.15,5.63c-.35.07-3.7.43-10,1.08q-5.73.64-17.07,1.53a6.91,6.91,0,0,0,4.12,4.85,14.44,14.44,0,0,0,6.4,1.37,18.18,18.18,0,0,0,8.68-2.36l3.68-2.35c.68.33,1.82,2,3.42,5s2.4,4.92,2.4,5.74c0,.22-.24.6-.72,1.13q-5.93,6.4-18.38,6.42-11.55,0-18.63-6.82-7.26-6.92-7.27-18.48,0-11.26,6.5-18.48,6.69-7.44,17.75-7.44a20.94,20.94,0,0,1,15.81,6.86A22.91,22.91,0,0,1,1555.19,579.62Zm-17-3a7.65,7.65,0,0,0-2.13-5.35A6.73,6.73,0,0,0,1531,569a6.12,6.12,0,0,0-5,2.6,9,9,0,0,0-1.84,5.64,1.18,1.18,0,0,0,1.36,1.32,84.62,84.62,0,0,0,11.15-1.13C1537.69,577.25,1538.22,577,1538.22,576.63Z"/><path class="cls-2" d="M1615.18,574.62c0,.78-.42,1.18-1.26,1.18q-5.24,0-8.25-.3.15,3.68.29,10.24c0,1.87.18,5.1.44,9.71.23,4.15.34,7.39.34,9.7,0,.69-.45,1.08-1.36,1.18q-1.64.2-8.24.2a51.42,51.42,0,0,1-7.13-.3,1.82,1.82,0,0,1-1.65-2v-27c0-1-.64-1.42-1.94-1.42-.22,0-.59,0-1.09.05s-.86,0-1.09,0c-.91,0-1.37-.26-1.41-.78q-.43-4.26-.43-12.4a2.07,2.07,0,0,1,1.84-2.21c1.1-.1,2.21-.18,3.35-.24-.16-2.61-.24-4.66-.24-6.13q0-8.43,3.24-12.25,6.45-7.61,20.85-7.6c.65,0,1,.2,1.17.59q.39,2.21,1.11,6.52c0,.26.25,1.17.63,2.74a13,13,0,0,1,.44,2.8c0,.78-1.15,1.29-3.44,1.52q-4,.43-4.9,1.46-1.6,1.77-1.6,6.92a18.37,18.37,0,0,0,.24,3c.91,0,2.32,0,4.22-.1s3.35-.1,4.32-.1,1.46.36,1.46,1.08c0,1.53,0,3.85,0,6.93S1615.18,573.08,1615.18,574.62Z"/><path class="cls-2" d="M1667.07,582.12q0,11.18-6.76,18.13t-17.78,7q-10.66,0-17.55-6.87t-6.89-17.64q0-11.37,6.6-18.46t17.84-7.08q11,0,17.75,6.94T1667.07,582.12Zm-15.91,0a10.61,10.61,0,0,0-2.38-6.84,7.5,7.5,0,0,0-6.15-3,7.78,7.78,0,0,0-6.31,3,11.08,11.08,0,0,0,0,13.57,8,8,0,0,0,12.57,0A10.59,10.59,0,0,0,1651.16,582.12Z"/><path class="cls-2" d="M1705.08,575.7c0,1.27-.69,1.91-2.08,1.91-.62,0-1.51,0-2.69-.12s-2.06-.13-2.65-.13q-4,0-5.48,1.28t-1.45,5.14q0,2.12.07,6.4t.07,6.4c0,.95.07,2.36.2,4.24s.19,3.27.19,4.19-.53,1.22-1.6,1.32c-1.55.13-3.92.2-7.13.2a71.51,71.51,0,0,1-7.37-.3c-1.07-.13-1.6-.67-1.6-1.61q0-3.93,0-11.74t.05-11.74a72.41,72.41,0,0,0-2.08-19,3.29,3.29,0,0,1-.1-.74,1,1,0,0,1,.73-1q2.65-.3,7.8-1.08c5.11-1,7.74-1.52,7.9-1.52.59,0,1,1,1.12,3.09s.45,3.08.87,3.08q-.68,0,4-2.57a18.52,18.52,0,0,1,9-2.57c1.81,0,2.72.39,2.72,1.17a37.5,37.5,0,0,1-.3,4q-.29,2.79-.33,4c0,.95,0,2.21,0,3.77C1705.05,573.8,1705.08,575.08,1705.08,575.7Z"/><path class="cls-2" d="M1729.86,595.89q0,10.14-3.44,15.24-3.83,5.64-13.24,7.65a29.66,29.66,0,0,1-6.06.59q-1.93,0-1.94-8.48c0-2.84.43-4.39,1.26-4.66,2.56-.78,4.17-1.55,4.85-2.3q1.21-1.38,1.41-5.44c.1-1.76.14-6.28.14-13.53a144.82,144.82,0,0,0-1.74-23.48c0-.29,0-.52,0-.69,0-.81.45-1.22,1.36-1.22q4.85,0,7.52-.29,7.74-.88,8.48-.89c.68,0,1.07.43,1.16,1.28q.3,2.36.29,19.16Zm.39-49.06q0,8.24-9.6,8.23a10.47,10.47,0,0,1-6.69-2,7.39,7.39,0,0,1-2.86-6.22,7.58,7.58,0,0,1,3-6.18,11.19,11.19,0,0,1,13.19,0A7.48,7.48,0,0,1,1730.25,546.83Z"/><path class="cls-2" d="M1787.08,581.72q0,3.78.44,11.23c.29,5,.44,8.69.44,11.18,0,1.3-.57,2-1.7,2.1q-6,.45-13.77.44c-.62,0-1-.93-1.24-2.82s-.46-2.83-.75-2.86a4.53,4.53,0,0,0-1,.83q-5.43,5.53-11.64,5.54a19.42,19.42,0,0,1-15.66-7.55,25.52,25.52,0,0,1-5.87-16.86q0-11.33,6.06-18.23,6.3-7.15,17.27-7.16a14.72,14.72,0,0,1,12,5.39c.13.17.24.25.34.25.29,0,.62-.8,1-2.38s.82-2.37,1.34-2.37a42.54,42.54,0,0,1,6.83,1,69.63,69.63,0,0,1,6.89,1.67c.49.2.73.46.73.78a8.24,8.24,0,0,1-.15,1A109.46,109.46,0,0,0,1787.08,581.72Zm-15.61.3a9.58,9.58,0,0,0-2.6-6.89,9.76,9.76,0,0,0-13.5,0,10.23,10.23,0,0,0,.14,13.72,8.77,8.77,0,0,0,6.6,2.85,8.93,8.93,0,0,0,6.74-2.73A9.56,9.56,0,0,0,1771.47,582Z"/><path class="cls-2" d="M1828.89,575.7c0,1.27-.7,1.91-2.09,1.91-.61,0-1.51,0-2.69-.12s-2.06-.13-2.64-.13q-4,0-5.48,1.28t-1.46,5.14c0,1.41,0,3.54.07,6.4s.08,5,.08,6.4c0,.95.06,2.36.19,4.24s.19,3.27.19,4.19-.53,1.22-1.59,1.32c-1.56.13-3.93.2-7.13.2a71.51,71.51,0,0,1-7.37-.3c-1.07-.13-1.6-.67-1.6-1.61q0-3.93,0-11.74c0-5.22,0-9.13,0-11.74q0-11.52-2.08-19a3.29,3.29,0,0,1-.1-.74,1,1,0,0,1,.73-1q2.67-.3,7.8-1.08c5.11-1,7.75-1.52,7.91-1.52.58,0,1,1,1.12,3.09s.45,3.08.87,3.08q-.68,0,4-2.57a18.52,18.52,0,0,1,9-2.57c1.82,0,2.72.39,2.72,1.17a39.74,39.74,0,0,1-.29,4c-.19,1.86-.31,3.2-.34,4s0,2.21,0,3.77C1828.85,573.8,1828.89,575.08,1828.89,575.7Z"/><path class="cls-2" d="M1883.3,581.72q0,3.78.43,11.23c.29,5,.44,8.69.44,11.18,0,1.3-.57,2-1.7,2.1q-6,.45-13.77.44c-.62,0-1-.93-1.24-2.82s-.46-2.83-.75-2.86a4.53,4.53,0,0,0-1,.83q-5.43,5.53-11.64,5.54a19.42,19.42,0,0,1-15.66-7.55,25.52,25.52,0,0,1-5.87-16.86q0-11.33,6.06-18.23,6.3-7.15,17.27-7.16a14.72,14.72,0,0,1,12,5.39c.13.17.24.25.34.25.29,0,.62-.8,1-2.38s.81-2.37,1.33-2.37a42.54,42.54,0,0,1,6.83,1,68.9,68.9,0,0,1,6.89,1.67c.49.2.73.46.73.78a8.24,8.24,0,0,1-.15,1A109.48,109.48,0,0,0,1883.3,581.72Zm-15.62.3a9.58,9.58,0,0,0-2.6-6.89,9.76,9.76,0,0,0-13.5,0,10.23,10.23,0,0,0,.14,13.72,8.77,8.77,0,0,0,6.6,2.85,8.93,8.93,0,0,0,6.74-2.73A9.56,9.56,0,0,0,1867.68,582Zm-17.22-28.28c-.61,0-.92-.31-.92-1,0-.26,0-.67.1-1.23a10.7,10.7,0,0,0,.1-1.27,15.39,15.39,0,0,0-.17-1.81,15.51,15.51,0,0,1-.17-1.82q0-.68,1-1.08a88.58,88.58,0,0,0,9.21-4.85q3-2.14,9-6.42a3.41,3.41,0,0,1,1-.49,2.4,2.4,0,0,1,.82.49c.75.78,1.93,1.9,3.54,3.34.91.52,2.23,1.35,4,2.49.52.36.78.69.78,1s-.23.61-.68,1q-4.27,4.08-12.81,7.72t-14.3,4Z"/><path class="cls-8" d="M1075.92,826.91l-8.27,122.32s67.07,18.71,79.08,4.75l-9.31-122L1194,818.62l6.43-78.41-59.32-17.15s-57.66-39,99.21-142.76c0,0-122.89,36.41-157,122.31,0,0-26.25,75.28-23.13,113.93Z"/><path class="cls-7" d="M1209.23,813.37l665,5.76s34.33-39.87,2.43-72.59l-666.34-6.92Z"/></svg>